<svg width="21" height="22" viewBox="0 0 21 22" fill="none" xmlns="http://www.w3.org/2000/svg">
<mask id="path-1-inside-1_1331_4067" fill="white">
<path d="M1 0H18C19.6569 0 21 1.34315 21 3V19C21 20.6569 19.6569 22 18 22H1V0Z"/>
</mask>
<path d="M1 0H18C19.6569 0 21 1.34315 21 3V19C21 20.6569 19.6569 22 18 22H1V0Z" fill="white"/>
<path d="M1 -1H18C20.2091 -1 22 0.790861 22 3H20C20 1.89543 19.1046 1 18 1H1V-1ZM22 19C22 21.2091 20.2091 23 18 23H1V21H18C19.1046 21 20 20.1046 20 19H22ZM1 22V0V22ZM18 -1C20.2091 -1 22 0.790861 22 3V19C22 21.2091 20.2091 23 18 23V21C19.1046 21 20 20.1046 20 19V3C20 1.89543 19.1046 1 18 1V-1Z" fill="#424453" mask="url(#path-1-inside-1_1331_4067)"/>
<path d="M1.23807 21.5023L1.00425 0.496224L1.28084 0.496224L1.49805 21.501L1.23807 21.5023Z" fill="white" stroke="#424453"/>
<mask id="path-4-inside-2_1331_4067" fill="white">
<path d="M7.5 5.5498L12.4498 10.4996L7.5 15.4493L2.55025 10.4996L7.5 5.5498Z"/>
</mask>
<path d="M12.4498 10.4996L13.1569 11.2067L13.864 10.4996L13.1569 9.79245L12.4498 10.4996ZM6.79289 6.25691L11.7426 11.2067L13.1569 9.79245L8.20711 4.8427L6.79289 6.25691ZM11.7426 9.79245L6.79289 14.7422L8.20711 16.1564L13.1569 11.2067L11.7426 9.79245Z" fill="black" mask="url(#path-4-inside-2_1331_4067)"/>
</svg>
