<svg width="99" height="112" viewBox="0 0 99 112" fill="none" xmlns="http://www.w3.org/2000/svg">
<path fill-rule="evenodd" clip-rule="evenodd" d="M98.9985 62.5212V0.266967C98.9985 0.146374 98.9029 0.0507812 98.7807 0.0507812H0.216353C0.100082 0.0507812 0 0.146374 0 0.266967V62.5212C0 75.7409 5.15274 88.162 14.5001 97.5095C23.843 106.853 36.2767 112 49.4993 112C76.7951 112 98.9985 89.8047 98.9985 62.5212ZM5.01881 5.05394C5.00998 5.04806 5.00115 5.04512 4.99673 5.03482C4.99379 5.03482 4.98496 5.03188 4.97907 5.026C4.97907 5.02306 4.97613 5.02306 4.97907 5.01718C4.97907 5.01423 4.97907 5.01423 4.98496 5.01423C94.3668 5.01423 93.9856 4.97453 94.0283 5.01718C94.0283 5.026 94.018 5.03482 94.0077 5.03482C93.7339 5.58044 80.4216 16.5074 70.799 21.7782C70.799 21.7826 70.7931 21.7826 70.7902 21.787C68.8415 22.6724 67.7465 24.996 68.4765 27.1755C68.4795 27.1799 68.4795 27.1843 68.4854 27.1902C68.5148 27.2784 68.6164 27.549 68.6311 27.5652C68.6517 27.6388 68.9593 28.2064 73.7706 36.8097C73.8103 36.8745 73.8103 36.9568 73.7706 37.0215C73.7338 37.0921 73.6617 37.1303 73.5851 37.1303C68.0998 37.1451 64.6366 37.1377 62.4466 37.1318C58.3727 37.1186 58.7068 37.1053 58.617 37.2304C53.9544 44.3557 52.7917 46.1249 52.5753 46.4587C52.5709 46.4616 52.5709 46.4661 52.5665 46.4705C52.5665 46.4763 52.5577 46.4808 52.5518 46.4852V46.4881C52.5518 46.494 52.5518 46.494 52.5488 46.4969C52.5444 46.5058 52.54 46.5102 52.5341 46.5146V46.5205L52.5312 46.5234C49.7612 50.7236 49.6008 51.2663 49.3212 50.8736C48.3822 49.4397 40.7038 37.7083 40.3756 37.2186C40.3756 37.2156 40.3727 37.2098 40.3727 37.2098C40.3727 37.2068 40.3668 37.2068 40.3668 37.2068C40.3624 37.198 40.358 37.1921 40.355 37.1906V37.1848V37.1818C40.3506 37.1759 40.3462 37.173 40.3462 37.1671L40.3403 37.1642C40.3374 37.1642 40.3374 37.1598 40.3374 37.1598C40.3374 37.1568 40.3374 37.1568 40.3315 37.1509L40.3285 37.148C40.3285 37.1436 40.3285 37.1436 40.3227 37.1392C40.3227 37.1039 37.9089 37.1171 35.011 37.1289C30.6957 37.148 25.3089 37.1671 25.2294 37.0259C25.1161 36.8347 25.2574 36.8406 26.6188 34.3332C26.6424 34.2905 30.1835 27.9594 30.2129 27.9005C30.2556 27.8564 30.4263 27.4593 30.4587 27.3682C30.4587 27.3682 30.4587 27.3637 30.4646 27.3593C30.4955 27.2814 30.522 27.2049 30.547 27.1255V27.1167C30.5485 27.1093 30.6088 26.9064 30.6118 26.8961C30.6118 26.8873 30.6118 26.8828 30.6162 26.8755C30.6206 26.8534 30.628 26.8314 30.6339 26.8108C30.6339 26.802 30.6339 26.7975 30.6368 26.7931C31.0931 24.8166 30.1747 22.7341 28.2069 21.7856H28.198C23.9519 19.5208 13.6891 12.6778 5.01733 5.0613L5.01881 5.05394ZM19.9207 30.8404C15.782 28.6241 9.44742 24.6842 5.06443 21.8591C5.00409 21.8194 4.96582 21.7517 4.96582 21.6767C5.01145 15.2044 4.85249 15.3162 5.09092 15.1956C5.16304 15.1617 5.25429 15.175 5.32052 15.2264C15.3832 23.4195 21.8826 26.3387 21.9959 26.6181C22.0651 26.6446 22.1298 26.674 22.199 26.7064C22.202 26.7093 22.2432 26.7358 22.2505 26.7358C22.2564 26.7417 22.2653 26.7446 22.2682 26.7446C23.4324 27.3873 23.8945 28.7947 23.3676 30.0006C23.3632 30.0036 23.3632 30.0124 23.3603 30.0183L23.2175 30.2845V30.2933C23.2072 30.3124 23.1998 30.3256 23.1925 30.3359V30.3374C23.1925 30.3403 23.191 30.3433 23.1881 30.3477C23.085 30.5418 22.6553 31.358 21.1408 34.2376C21.731 32.9758 21.1997 31.5786 20.165 30.9771V30.9713C20.0944 30.9345 20.0311 30.8933 19.9604 30.8624C19.9575 30.8595 19.9516 30.8536 19.9428 30.8507H19.9398C19.9339 30.8462 19.9266 30.8418 19.9222 30.8374L19.9207 30.8404ZM77.8283 34.1743V34.1655C77.8062 34.1229 75.8149 30.308 75.7722 30.2653L75.6515 30.0286C75.6486 30.0227 75.6486 30.0227 75.6486 30.0197C75.1158 28.852 75.5455 27.3932 76.7509 26.7417C76.7951 26.6975 76.9864 26.6519 77.0144 26.5931C88.8711 19.9472 93.4411 14.9838 93.915 15.1956C93.9886 15.2353 94.0357 15.3088 94.0357 15.3897C93.9959 21.9076 94.1269 21.737 93.9356 21.8591C89.6953 24.6033 83.2121 28.6314 79.0852 30.8404C79.0823 30.8448 79.0764 30.8492 79.0675 30.8536H79.0646C79.0602 30.8565 79.0514 30.8624 79.0469 30.8654C78.9734 30.8962 78.913 30.9315 78.8482 30.9698C78.8482 30.9727 78.8438 30.9727 78.8438 30.9727H78.8394C78.8173 31.0168 77.6193 31.6242 77.6193 33.1478C77.6193 33.5155 77.7017 33.8714 77.8445 34.1846C77.8445 34.1935 77.8474 34.1979 77.8533 34.2067H77.8474L77.8268 34.1729L77.8283 34.1743ZM4.96729 36.9112C5.00703 29.7697 4.80245 29.0035 5.29109 29.2815C9.41357 31.5904 14.0291 34.0699 14.0806 34.0979C14.0865 34.0979 14.0895 34.1008 14.0953 34.1008C19.1348 36.7833 20.1091 37.1274 19.7308 37.1274C14.4236 37.0936 11.0222 37.1098 8.84546 37.1259C7.61946 37.1348 6.78054 37.1436 6.20801 37.1436C4.9305 37.1436 4.96877 37.0995 4.96877 36.9112H4.96729ZM79.3177 36.998C92.0708 30.6095 94.0371 28.6064 94.0371 29.4653C93.9444 36.9127 94.2343 37.1259 93.8208 37.1259C89.9676 37.1201 87.1006 37.1245 84.9827 37.1274C83.6389 37.1303 82.5954 37.1318 81.7904 37.1318C79.3369 37.1318 79.0926 37.1098 79.3192 36.9965L79.3177 36.998ZM86.0247 42.0909C94.6067 42.0614 94.0371 42.0335 94.0371 42.3026C93.9503 46.6043 94.2329 47.0514 93.8208 47.0514C83.87 47.0396 76.6803 47.0499 71.4937 47.0587C57.6427 47.0852 58.0754 47.1102 58.3374 46.7175C61.5488 41.8453 61.2898 42.0864 61.4855 42.0864C66.8855 42.1026 71.3907 42.1085 75.1496 42.1085C79.8417 42.1085 83.3696 42.0997 86.0247 42.0909ZM4.96877 42.3026C4.96877 42.1806 5.06738 42.0864 5.18365 42.0864H37.5233C37.5969 42.0864 37.6661 42.1262 37.7029 42.1865C37.9943 42.6321 40.1828 45.9778 40.6671 46.7175C40.9688 47.1705 40.3374 47.1043 32.2778 47.0367C27.0162 46.9925 18.5872 46.9499 5.18218 47.0499C4.76713 47.0499 5.05707 46.5675 4.96729 42.3012L4.96877 42.3026Z" fill="url(#paint0_linear_490_3994)"/>
<defs>
<linearGradient id="paint0_linear_490_3994" x1="0.00441537" y1="56.0209" x2="98.9985" y2="56.0209" gradientUnits="userSpaceOnUse">
<stop stop-color="#040404"/>
<stop offset="0.14902" stop-color="#222223"/>
<stop offset="0.25098" stop-color="#414042"/>
<stop offset="0.333333" stop-color="#232223"/>
<stop offset="0.4" stop-color="#040404"/>
<stop offset="0.478431" stop-color="#020202"/>
<stop offset="0.529412"/>
<stop offset="0.839216" stop-color="#414042"/>
<stop offset="1"/>
</linearGradient>
</defs>
</svg>
