<svg width="33" height="33" viewBox="0 0 33 33" fill="none" xmlns="http://www.w3.org/2000/svg">
<g clip-path="url(#clip0_1424_3672)">
<path d="M25.7651 20.707L22.3784 20.3203C21.5651 20.227 20.7651 20.507 20.1917 21.0803L17.7384 23.5337C13.9651 21.6137 10.8717 18.5337 8.95172 14.747L11.4184 12.2803C11.9917 11.707 12.2717 10.907 12.1784 10.0937L11.7917 6.73366C11.6317 5.38699 10.4984 4.37366 9.13839 4.37366H6.83172C5.32505 4.37366 4.07172 5.62699 4.16505 7.13366C4.87172 18.5203 13.9784 27.6137 25.3517 28.3203C26.8584 28.4137 28.1117 27.1603 28.1117 25.6537V23.347C28.1251 22.0003 27.1117 20.867 25.7651 20.707Z" fill="#EE3F4C"/>
</g>
<defs>
<clipPath id="clip0_1424_3672">
<rect x="0.125" y="0.360352" width="32" height="32" fill="white"/>
</clipPath>
</defs>
</svg>
