<svg width="32" height="32" viewBox="0 0 32 32" fill="none" xmlns="http://www.w3.org/2000/svg">
<path d="M22.6654 24.0003C23.3726 24.0003 24.0509 24.2813 24.551 24.7814C25.0511 25.2815 25.332 25.9597 25.332 26.667C25.332 27.3742 25.0511 28.0525 24.551 28.5526C24.0509 29.0527 23.3726 29.3337 22.6654 29.3337C21.9581 29.3337 21.2798 29.0527 20.7797 28.5526C20.2796 28.0525 19.9987 27.3742 19.9987 26.667C19.9987 25.187 21.1854 24.0003 22.6654 24.0003ZM1.33203 2.66699H5.69203L6.94536 5.33366H26.6654C27.019 5.33366 27.3581 5.47413 27.6082 5.72418C27.8582 5.97423 27.9987 6.31337 27.9987 6.66699C27.9987 6.89366 27.932 7.12033 27.8387 7.33366L23.0654 15.9603C22.612 16.7737 21.732 17.3337 20.732 17.3337H10.7987L9.5987 19.507L9.5587 19.667C9.5587 19.7554 9.59382 19.8402 9.65633 19.9027C9.71884 19.9652 9.80363 20.0003 9.89203 20.0003H25.332V22.667H9.33203C8.62479 22.667 7.94651 22.386 7.44641 21.8859C6.94632 21.3858 6.66536 20.7076 6.66536 20.0003C6.66536 19.5337 6.78536 19.0937 6.98536 18.7203L8.7987 15.4537L3.9987 5.33366H1.33203V2.66699ZM9.33203 24.0003C10.0393 24.0003 10.7176 24.2813 11.2176 24.7814C11.7177 25.2815 11.9987 25.9597 11.9987 26.667C11.9987 27.3742 11.7177 28.0525 11.2176 28.5526C10.7176 29.0527 10.0393 29.3337 9.33203 29.3337C8.62479 29.3337 7.94651 29.0527 7.44641 28.5526C6.94632 28.0525 6.66536 27.3742 6.66536 26.667C6.66536 25.187 7.85203 24.0003 9.33203 24.0003ZM21.332 14.667L25.0387 8.00033H8.18536L11.332 14.667H21.332Z" fill="#EE3F4C"/>
</svg>
