<svg width="33" height="33" viewBox="0 0 33 33" fill="none" xmlns="http://www.w3.org/2000/svg">
<path d="M16.1243 3.02698C8.76035 3.02698 2.79102 8.99631 2.79102 16.3603C2.79102 23.7243 8.76035 29.6936 16.1243 29.6936C23.4883 29.6936 29.4577 23.7243 29.4577 16.3603C29.4577 8.99631 23.4883 3.02698 16.1243 3.02698ZM19.5723 21.6936L15.1817 17.303C14.931 17.0523 14.791 16.7136 14.791 16.3603V9.69364C14.791 8.95764 15.3883 8.36031 16.1243 8.36031C16.8603 8.36031 17.4577 8.95764 17.4577 9.69364V15.8083L21.4577 19.8083C21.9777 20.3283 21.9777 21.1736 21.4577 21.6936C20.9377 22.2136 20.0923 22.2136 19.5723 21.6936Z" fill="#EE3F4C"/>
</svg>
