<svg width="17" height="16" viewBox="0 0 17 16" fill="none" xmlns="http://www.w3.org/2000/svg">
<g clip-path="url(#clip0_399_3789)">
<g clip-path="url(#clip1_399_3789)">
<g clip-path="url(#clip2_399_3789)">
<path d="M0.900908 4.26684C0.901218 4.16153 0.932708 4.05866 0.991409 3.97122C1.05011 3.88379 1.13339 3.81569 1.23075 3.77552C1.32811 3.73536 1.43518 3.72493 1.53846 3.74554C1.64174 3.76616 1.7366 3.8169 1.81107 3.89136L9.27864 11.3589C9.36388 11.4611 9.40781 11.5915 9.4018 11.7245C9.39579 11.8574 9.34028 11.9833 9.24618 12.0774C9.15207 12.1715 9.02617 12.227 8.89323 12.2331C8.76028 12.2391 8.62989 12.1951 8.52768 12.1099L1.05861 4.64233C0.95843 4.54296 0.901722 4.40794 0.900908 4.26684Z" fill="#282C3F"/>
<path d="M8.36666 11.7348C8.36547 11.5948 8.41942 11.4599 8.51685 11.3593L15.9919 3.89175C16.0403 3.8383 16.099 3.79523 16.1645 3.76516C16.23 3.73509 16.3009 3.71865 16.3729 3.71684C16.445 3.71503 16.5166 3.72789 16.5836 3.75463C16.6505 3.78137 16.7113 3.82144 16.7622 3.8724C16.8132 3.92336 16.8533 3.98415 16.88 4.05108C16.9068 4.118 16.9196 4.18966 16.9178 4.26171C16.916 4.33376 16.8996 4.40468 16.8695 4.47018C16.8394 4.53568 16.7963 4.59438 16.7429 4.64272L9.27532 12.1103C9.20084 12.1847 9.10599 12.2355 9.00271 12.2561C8.89943 12.2767 8.79236 12.2663 8.695 12.2261C8.59764 12.186 8.51436 12.1179 8.45566 12.0304C8.39696 11.943 8.36697 11.8401 8.36666 11.7348Z" fill="#282C3F"/>
</g>
</g>
</g>
<defs>
<clipPath id="clip0_399_3789">
<rect width="16" height="16" fill="white" transform="translate(0.898438)"/>
</clipPath>
<clipPath id="clip1_399_3789">
<rect width="16" height="16" fill="white" transform="translate(0.898438)"/>
</clipPath>
<clipPath id="clip2_399_3789">
<rect width="16" height="8.52943" fill="white" transform="translate(0.898438 3.73523)"/>
</clipPath>
</defs>
</svg>
