<svg width="33" height="33" viewBox="0 0 33 33" fill="none" xmlns="http://www.w3.org/2000/svg">
<g clip-path="url(#clip0_1424_3681)">
<path d="M26.791 5.69373H5.45768C3.99102 5.69373 2.80435 6.89373 2.80435 8.36039L2.79102 24.3604C2.79102 25.8271 3.99102 27.0271 5.45768 27.0271H26.791C28.2577 27.0271 29.4577 25.8271 29.4577 24.3604V8.36039C29.4577 6.89373 28.2577 5.69373 26.791 5.69373ZM26.2577 11.3604L16.831 17.2537C16.4043 17.5204 15.8443 17.5204 15.4177 17.2537L5.99102 11.3604C5.65768 11.1471 5.45768 10.7871 5.45768 10.4004C5.45768 9.50706 6.43102 8.97373 7.19102 9.44039L16.1243 15.0271L25.0577 9.44039C25.8177 8.97373 26.791 9.50706 26.791 10.4004C26.791 10.7871 26.591 11.1471 26.2577 11.3604Z" fill="#EE3F4C"/>
</g>
<defs>
<clipPath id="clip0_1424_3681">
<rect width="32" height="32" fill="white" transform="translate(0.125 0.360352)"/>
</clipPath>
</defs>
</svg>
