<svg width="24" height="24" viewBox="0 0 24 24" fill="none" xmlns="http://www.w3.org/2000/svg">
<g clip-path="url(#clip0_490_4040)">
<path d="M21.8725 0.905273H2.13063C1.45442 0.905273 0.90625 1.45344 0.90625 2.12965V21.8715C0.90625 22.5477 1.45442 23.0959 2.13063 23.0959H21.8725C22.5487 23.0959 23.0969 22.5477 23.0969 21.8715V2.12965C23.0969 1.45344 22.5487 0.905273 21.8725 0.905273Z" fill="#999999"/>
<path d="M16.2159 23.0943V14.5012H19.0997L19.5309 11.1524H16.2159V9.01494C16.2159 8.04557 16.4859 7.38369 17.8753 7.38369H19.6491V4.38369C18.7901 4.29418 17.927 4.25161 17.0634 4.25619C14.5097 4.25619 12.7509 5.81244 12.7509 8.68307V11.1524H9.86719V14.5012H12.7509V23.0943H16.2159Z" fill="white"/>
</g>
<defs>
<clipPath id="clip0_490_4040">
<rect width="24" height="24" fill="white"/>
</clipPath>
</defs>
</svg>
