<svg width="32" height="32" viewBox="0 0 32 32" fill="none" xmlns="http://www.w3.org/2000/svg">
<path d="M16.0014 6.03875C17.5248 4.67502 19.5127 3.94658 21.5565 4.00312C23.6004 4.05966 25.545 4.89688 26.9907 6.34275C28.4352 7.787 29.2725 9.72908 29.331 11.7709C29.3895 13.8127 28.6648 15.7995 27.3054 17.3241L15.9987 28.6468L4.6947 17.3241C3.3337 15.7987 2.6083 13.8102 2.66741 11.7667C2.72652 9.7233 3.56566 7.78002 5.01256 6.33586C6.45945 4.89169 8.40431 4.05622 10.4478 4.00097C12.4914 3.94572 14.4785 4.67488 16.0014 6.03875ZM25.1027 8.22675C24.1395 7.26425 22.8444 6.70686 21.4833 6.66892C20.1221 6.63099 18.798 7.11539 17.7827 8.02275L16.0027 9.62008L14.2214 8.02408C13.2103 7.11994 11.8926 6.63501 10.5367 6.66798C9.18066 6.70095 7.88817 7.24933 6.92219 8.20154C5.95622 9.15376 5.38935 10.4382 5.33693 11.7936C5.28451 13.149 5.75048 14.4734 6.64003 15.4974L16 24.8721L25.36 15.4988C26.2458 14.4793 26.7119 13.1617 26.6641 11.812C26.6164 10.4624 26.0583 9.18105 25.1027 8.22675Z" fill="#EE3F4C"/>
</svg>
