<svg width="28" height="28" viewBox="0 0 28 28" fill="none" xmlns="http://www.w3.org/2000/svg">
<circle cx="14" cy="14" r="13.5" stroke="#E4E4E4"/>
<mask id="mask0_415_6805" style="mask-type:alpha" maskUnits="userSpaceOnUse" x="5" y="5" width="18" height="18">
<rect x="5" y="5" width="18" height="18" fill="#D9D9D9"/>
</mask>
<g mask="url(#mask0_415_6805)">
<path d="M14 20.75L12.9125 19.775C11.65 18.6375 10.6062 17.6563 9.78125 16.8313C8.95625 16.0063 8.3 15.2657 7.8125 14.6094C7.325 13.9532 6.98438 13.35 6.79063 12.8C6.59688 12.25 6.5 11.6875 6.5 11.1125C6.5 9.93755 6.89375 8.9563 7.68125 8.1688C8.46875 7.3813 9.45 6.98755 10.625 6.98755C11.275 6.98755 11.8937 7.12505 12.4812 7.40005C13.0687 7.67505 13.575 8.06255 14 8.56255C14.425 8.06255 14.9313 7.67505 15.5188 7.40005C16.1063 7.12505 16.725 6.98755 17.375 6.98755C18.55 6.98755 19.5313 7.3813 20.3188 8.1688C21.1063 8.9563 21.5 9.93755 21.5 11.1125C21.5 11.6875 21.4031 12.25 21.2094 12.8C21.0156 13.35 20.675 13.9532 20.1875 14.6094C19.7 15.2657 19.0437 16.0063 18.2188 16.8313C17.3938 17.6563 16.35 18.6375 15.0875 19.775L14 20.75ZM14 18.725C15.2 17.65 16.1875 16.7282 16.9625 15.9594C17.7375 15.1907 18.35 14.5219 18.8 13.9532C19.25 13.3844 19.5625 12.8782 19.7375 12.4344C19.9125 11.9907 20 11.55 20 11.1125C20 10.3625 19.75 9.73755 19.25 9.23755C18.75 8.73755 18.125 8.48755 17.375 8.48755C16.7875 8.48755 16.2437 8.65317 15.7437 8.98442C15.2437 9.31567 14.9 9.73755 14.7125 10.25H13.2875C13.1 9.73755 12.7563 9.31567 12.2563 8.98442C11.7562 8.65317 11.2125 8.48755 10.625 8.48755C9.875 8.48755 9.25 8.73755 8.75 9.23755C8.25 9.73755 8 10.3625 8 11.1125C8 11.55 8.0875 11.9907 8.2625 12.4344C8.4375 12.8782 8.75 13.3844 9.2 13.9532C9.65 14.5219 10.2625 15.1907 11.0375 15.9594C11.8125 16.7282 12.8 17.65 14 18.725Z" fill="#6B6B6B"/>
</g>
</svg>
