<svg width="33" height="33" viewBox="0 0 33 33" fill="none" xmlns="http://www.w3.org/2000/svg">
<g clip-path="url(#clip0_1424_3687)">
<path d="M16.1243 3.02698C10.9643 3.02698 6.79102 7.20031 6.79102 12.3603C6.79102 17.9203 12.6843 25.587 15.111 28.507C15.6443 29.147 16.6177 29.147 17.151 28.507C19.5643 25.587 25.4577 17.9203 25.4577 12.3603C25.4577 7.20031 21.2843 3.02698 16.1243 3.02698ZM16.1243 15.6936C14.2843 15.6936 12.791 14.2003 12.791 12.3603C12.791 10.5203 14.2843 9.02698 16.1243 9.02698C17.9643 9.02698 19.4577 10.5203 19.4577 12.3603C19.4577 14.2003 17.9643 15.6936 16.1243 15.6936Z" fill="#EE3F4C"/>
</g>
<defs>
<clipPath id="clip0_1424_3687">
<rect width="32" height="32" fill="white" transform="translate(0.125 0.360352)"/>
</clipPath>
</defs>
</svg>
