<svg width="32" height="32" viewBox="0 0 32 32" fill="none" xmlns="http://www.w3.org/2000/svg">
<path d="M15.9987 10.6663C13.052 10.6663 10.6654 13.053 10.6654 15.9997C10.6654 18.9463 13.052 21.333 15.9987 21.333C18.9454 21.333 21.332 18.9463 21.332 15.9997C21.332 13.053 18.9454 10.6663 15.9987 10.6663ZM27.9187 14.6663C27.6167 11.9625 26.4042 9.44172 24.4804 7.51793C22.5567 5.59414 20.0359 4.38169 17.332 4.07967V2.66634C17.332 1.93301 16.732 1.33301 15.9987 1.33301C15.2654 1.33301 14.6654 1.93301 14.6654 2.66634V4.07967C11.9615 4.38169 9.44075 5.59414 7.51696 7.51793C5.59316 9.44172 4.38071 11.9625 4.0787 14.6663H2.66536C1.93203 14.6663 1.33203 15.2663 1.33203 15.9997C1.33203 16.733 1.93203 17.333 2.66536 17.333H4.0787C4.38071 20.0368 5.59316 22.5576 7.51696 24.4814C9.44075 26.4052 11.9615 27.6177 14.6654 27.9197V29.333C14.6654 30.0663 15.2654 30.6663 15.9987 30.6663C16.732 30.6663 17.332 30.0663 17.332 29.333V27.9197C20.0359 27.6177 22.5567 26.4052 24.4804 24.4814C26.4042 22.5576 27.6167 20.0368 27.9187 17.333H29.332C30.0654 17.333 30.6654 16.733 30.6654 15.9997C30.6654 15.2663 30.0654 14.6663 29.332 14.6663H27.9187ZM15.9987 25.333C10.8387 25.333 6.66536 21.1597 6.66536 15.9997C6.66536 10.8397 10.8387 6.66634 15.9987 6.66634C21.1587 6.66634 25.332 10.8397 25.332 15.9997C25.332 21.1597 21.1587 25.333 15.9987 25.333Z" fill="#EE3F4C"/>
</svg>
