<svg width="21" height="22" viewBox="0 0 21 22" fill="none" xmlns="http://www.w3.org/2000/svg">
<mask id="path-1-inside-1_1124_3268" fill="white">
<path d="M1 0H18C19.6569 0 21 1.34315 21 3V19C21 20.6569 19.6569 22 18 22H1V0Z"/>
</mask>
<path d="M1 0H18C19.6569 0 21 1.34315 21 3V19C21 20.6569 19.6569 22 18 22H1V0Z" fill="white"/>
<path d="M1 -1H18C20.2091 -1 22 0.790861 22 3H20C20 1.89543 19.1046 1 18 1H1V-1ZM22 19C22 21.2091 20.2091 23 18 23H1V21H18C19.1046 21 20 20.1046 20 19H22ZM1 22V0V22ZM18 -1C20.2091 -1 22 0.790861 22 3V19C22 21.2091 20.2091 23 18 23V21C19.1046 21 20 20.1046 20 19V3C20 1.89543 19.1046 1 18 1V-1Z" fill="#424453" mask="url(#path-1-inside-1_1124_3268)"/>
<path d="M1.23807 21.5013L1.00425 0.495247L1.28084 0.495247L1.49805 21.5L1.23807 21.5013Z" fill="white" stroke="#424453"/>
<mask id="path-4-inside-2_1124_3268" fill="white">
<path d="M7.5 5.55078L12.4498 10.5005L7.5 15.4503L2.55025 10.5005L7.5 5.55078Z"/>
</mask>
<path d="M12.4498 10.5005L13.1569 11.2076L13.864 10.5005L13.1569 9.79343L12.4498 10.5005ZM6.79289 6.25789L11.7426 11.2076L13.1569 9.79343L8.20711 4.84367L6.79289 6.25789ZM11.7426 9.79343L6.79289 14.7432L8.20711 16.1574L13.1569 11.2076L11.7426 9.79343Z" fill="black" mask="url(#path-4-inside-2_1124_3268)"/>
</svg>
