<svg width="21" height="23" viewBox="0 0 21 23" fill="none" xmlns="http://www.w3.org/2000/svg">
<g opacity="0.35">
<mask id="path-1-inside-1_1124_3271" fill="white">
<path d="M0 4C0 2.34315 1.34315 1 3 1H20V23H3C1.34315 23 0 21.6569 0 20V4Z"/>
</mask>
<path d="M0 4C0 2.34315 1.34315 1 3 1H20V23H3C1.34315 23 0 21.6569 0 20V4Z" fill="white"/>
<path d="M-1 4C-1 1.79086 0.790861 0 3 0H20V2H3C1.89543 2 1 2.89543 1 4H-1ZM20 24H3C0.790861 24 -1 22.2091 -1 20H1C1 21.1046 1.89543 22 3 22H20V24ZM3 24C0.790861 24 -1 22.2091 -1 20V4C-1 1.79086 0.790861 0 3 0V2C1.89543 2 1 2.89543 1 4V20C1 21.1046 1.89543 22 3 22V24ZM20 1V23V1Z" fill="#424453" mask="url(#path-1-inside-1_1124_3271)"/>
<path d="M19.6316 22.4299L19.6319 18.5638L19.6599 22.4317L19.6316 22.4299Z" stroke="#424453"/>
<mask id="path-4-inside-2_1124_3271" fill="white">
<path d="M13.5 17.4492L8.55025 12.4995L13.5 7.54971L18.4498 12.4995L13.5 17.4492Z"/>
</mask>
<path d="M8.55025 12.4995L7.84314 11.7924L7.13603 12.4995L7.84314 13.2066L8.55025 12.4995ZM14.2071 16.7421L9.25735 11.7924L7.84314 13.2066L12.7929 18.1563L14.2071 16.7421ZM9.25735 13.2066L14.2071 8.25682L12.7929 6.84261L7.84314 11.7924L9.25735 13.2066Z" fill="black" mask="url(#path-4-inside-2_1124_3271)"/>
</g>
</svg>
