<svg width="32" height="32" viewBox="0 0 32 32" fill="none" xmlns="http://www.w3.org/2000/svg">
<path fill-rule="evenodd" clip-rule="evenodd" d="M16.0013 2.66699C23.3653 2.66699 29.3346 8.63633 29.3346 16.0003C29.3394 19.0775 28.2752 22.0608 26.324 24.4403L26.3506 24.4697L26.1746 24.619C24.9243 26.098 23.3661 27.2861 21.6089 28.1004C19.8518 28.9148 17.938 29.3356 16.0013 29.3337C12.068 29.3337 8.53465 27.631 6.09465 24.9243L5.82798 24.6177L5.65198 24.471L5.67865 24.439C3.72766 22.0599 2.66348 19.0771 2.66798 16.0003C2.66798 8.63633 8.63732 2.66699 16.0013 2.66699ZM16.0013 22.667C13.5213 22.667 11.28 23.4563 9.61065 24.5417C11.4539 25.9247 13.6969 26.6707 16.0013 26.667C18.3057 26.6707 20.5488 25.9247 22.392 24.5417C20.4845 23.3193 18.2668 22.6688 16.0013 22.667ZM16.0013 5.33366C13.994 5.3336 12.0274 5.89995 10.3276 6.96759C8.62779 8.03524 7.26372 9.56086 6.3922 11.3691C5.52067 13.1773 5.17706 15.1948 5.40085 17.1896C5.62465 19.1843 6.40677 21.0755 7.65732 22.6457C9.81865 21.095 12.768 20.0003 16.0013 20.0003C19.2346 20.0003 22.184 21.095 24.3453 22.6457C25.5959 21.0755 26.378 19.1843 26.6018 17.1896C26.8256 15.1948 26.482 13.1773 25.6104 11.3691C24.7389 9.56086 23.3748 8.03524 21.675 6.96759C19.9752 5.89995 18.0086 5.3336 16.0013 5.33366ZM16.0013 8.00033C17.4158 8.00033 18.7724 8.56223 19.7726 9.56242C20.7727 10.5626 21.3346 11.9192 21.3346 13.3337C21.3346 14.7481 20.7727 16.1047 19.7726 17.1049C18.7724 18.1051 17.4158 18.667 16.0013 18.667C14.5868 18.667 13.2303 18.1051 12.2301 17.1049C11.2299 16.1047 10.668 14.7481 10.668 13.3337C10.668 11.9192 11.2299 10.5626 12.2301 9.56242C13.2303 8.56223 14.5868 8.00033 16.0013 8.00033ZM16.0013 10.667C15.2941 10.667 14.6158 10.9479 14.1157 11.448C13.6156 11.9481 13.3346 12.6264 13.3346 13.3337C13.3346 14.0409 13.6156 14.7192 14.1157 15.2193C14.6158 15.7194 15.2941 16.0003 16.0013 16.0003C16.7086 16.0003 17.3868 15.7194 17.8869 15.2193C18.387 14.7192 18.668 14.0409 18.668 13.3337C18.668 12.6264 18.387 11.9481 17.8869 11.448C17.3868 10.9479 16.7086 10.667 16.0013 10.667Z" fill="#EE3F4C"/>
</svg>
