<svg width="20" height="15" viewBox="0 0 20 15" fill="none" xmlns="http://www.w3.org/2000/svg">
<g clip-path="url(#clip0_399_1425)">
<path d="M15.4626 7.77171C15.4008 7.83375 15.3517 7.90737 15.3183 7.98837C15.2848 8.06937 15.2677 8.15617 15.2678 8.2438C15.2679 8.33143 15.2852 8.41818 15.3189 8.4991C15.3525 8.58002 15.4018 8.65352 15.4638 8.71541C15.5258 8.7773 15.5995 8.82636 15.6805 8.8598C15.7615 8.89324 15.8483 8.91039 15.9359 8.91028C16.0235 8.91018 16.1103 8.89281 16.1912 8.85918C16.2721 8.82555 16.3456 8.7763 16.4075 8.71427L19.7969 5.30655C19.8588 5.24468 19.9079 5.17121 19.9414 5.09035C19.9749 5.00948 19.9922 4.92281 19.9922 4.83528C19.9922 4.74774 19.9749 4.66107 19.9414 4.5802C19.9079 4.49934 19.8588 4.42587 19.7969 4.364L16.4075 0.975366C16.2812 0.860352 16.1155 0.798256 15.9447 0.80191C15.7739 0.805564 15.611 0.874688 15.4897 0.995C15.3684 1.11531 15.298 1.27762 15.293 1.44838C15.2879 1.61915 15.3487 1.78533 15.4626 1.91258L17.7179 4.16785L7.03305 4.16785C6.85634 4.16785 6.68687 4.23805 6.56192 4.363C6.43697 4.48795 6.36677 4.65742 6.36677 4.83413C6.36677 5.01084 6.43697 5.18031 6.56192 5.30526C6.68687 5.43021 6.85634 5.50041 7.03305 5.50041L17.7179 5.50041L15.4626 7.77171Z" fill="#424453"/>
<path d="M4.53693 14.6373C4.59885 14.5755 4.64796 14.502 4.68147 14.4211C4.71498 14.3403 4.73223 14.2536 4.73223 14.166C4.73223 14.0785 4.71498 13.9918 4.68147 13.911C4.64796 13.8301 4.59885 13.7566 4.53693 13.6948L2.28166 11.4395H12.9665C13.054 11.4395 13.1407 11.4223 13.2215 11.3888C13.3023 11.3553 13.3758 11.3062 13.4377 11.2443C13.4995 11.1825 13.5486 11.109 13.5821 11.0282C13.6156 10.9474 13.6328 10.8607 13.6328 10.7732C13.6328 10.6857 13.6156 10.5991 13.5821 10.5182C13.5486 10.4374 13.4995 10.364 13.4377 10.3021C13.3758 10.2402 13.3023 10.1911 13.2215 10.1577C13.1407 10.1242 13.054 10.1069 12.9665 10.1069H2.28166L4.53693 7.8448C4.59882 7.78291 4.64792 7.70944 4.68141 7.62858C4.7149 7.54771 4.73214 7.46105 4.73214 7.37352C4.73214 7.286 4.7149 7.19933 4.68141 7.11847C4.64792 7.0376 4.59882 6.96413 4.53693 6.90224C4.47504 6.84035 4.40157 6.79126 4.32071 6.75777C4.23985 6.72427 4.15318 6.70703 4.06565 6.70703C3.97813 6.70703 3.89146 6.72427 3.8106 6.75777C3.72974 6.79126 3.65627 6.84035 3.59438 6.90224L0.203455 10.297C0.0793438 10.4218 0.00967789 10.5907 0.00967789 10.7667C0.00967789 10.9428 0.0793438 11.1116 0.203455 11.2365L3.59438 14.6373C3.65625 14.6992 3.72972 14.7484 3.81058 14.7819C3.89145 14.8154 3.97812 14.8326 4.06565 14.8326C4.15319 14.8326 4.23986 14.8154 4.32073 14.7819C4.40159 14.7484 4.47506 14.6992 4.53693 14.6373Z" fill="#424453"/>
</g>
<defs>
<clipPath id="clip0_399_1425">
<rect width="19.983" height="14.03" fill="white" transform="translate(0.0078125 0.799805)"/>
</clipPath>
</defs>
</svg>
