<svg width="24" height="24" viewBox="0 0 24 24" fill="none" xmlns="http://www.w3.org/2000/svg">
<circle cx="12" cy="12" r="12" fill="#88D7FA"/>
<path d="M18.0007 9.33289C18.3562 9.33289 18.6673 9.46623 18.934 9.73289C19.2007 9.99956 19.334 10.3107 19.334 10.6662V11.9996C19.334 12.0773 19.3255 12.1607 19.3087 12.2496C19.2918 12.3384 19.2669 12.4218 19.234 12.4996L17.234 17.1996C17.134 17.4218 16.9673 17.6107 16.734 17.7662C16.5007 17.9218 16.2562 17.9996 16.0007 17.9996H10.6673C10.3007 17.9996 9.98687 17.8691 9.72598 17.6082C9.4651 17.3473 9.33443 17.0333 9.33398 16.6662V9.88289C9.33398 9.70511 9.37021 9.53578 9.44265 9.37489C9.5151 9.214 9.61221 9.07223 9.73398 8.94956L13.3507 5.34956C13.5173 5.194 13.7147 5.09956 13.9427 5.06623C14.1707 5.03289 14.39 5.07178 14.6007 5.18289C14.8118 5.294 14.9647 5.44956 15.0593 5.64956C15.154 5.84956 15.1733 6.05511 15.1173 6.26623L14.3673 9.33289H18.0007ZM6.66732 17.9996C6.30065 17.9996 5.98687 17.8691 5.72598 17.6082C5.4651 17.3473 5.33443 17.0333 5.33398 16.6662V10.6662C5.33398 10.2996 5.46465 9.98578 5.72598 9.72489C5.98732 9.464 6.3011 9.33334 6.66732 9.33289C7.03398 9.33289 7.34798 9.46356 7.60932 9.72489C7.87065 9.98623 8.0011 10.3 8.00065 10.6662V16.6662C8.00065 17.0329 7.87021 17.3469 7.60932 17.6082C7.34843 17.8696 7.03443 18 6.66732 17.9996Z" fill="#00618C"/>
</svg>
