<svg width="28" height="25" viewBox="0 0 28 25" fill="none" xmlns="http://www.w3.org/2000/svg">
<path d="M14.0014 2.03875C15.5248 0.675018 17.5127 -0.0534243 19.5565 0.00311549C21.6004 0.0596553 23.545 0.896882 24.9907 2.34275C26.4352 3.787 27.2725 5.72908 27.331 7.77087C27.3895 9.81266 26.6648 11.7995 25.3054 13.3241L13.9987 24.6468L2.6947 13.3241C1.3337 11.7987 0.6083 9.81016 0.667411 7.76673C0.726522 5.7233 1.56566 3.78002 3.01256 2.33586C4.45945 0.891693 6.40431 0.0562238 8.44785 0.000972269C10.4914 -0.0542793 12.4785 0.674879 14.0014 2.03875ZM23.1027 4.22675C22.1395 3.26425 20.8444 2.70686 19.4833 2.66892C18.1221 2.63099 16.798 3.11539 15.7827 4.02275L14.0027 5.62008L12.2214 4.02408C11.2103 3.11994 9.89265 2.63501 8.53665 2.66798C7.18066 2.70095 5.88817 3.24933 4.92219 4.20154C3.95622 5.15376 3.38935 6.43824 3.33693 7.79363C3.28451 9.14901 3.75048 10.4734 4.64003 11.4974L14 20.8721L23.36 11.4988C24.2458 10.4793 24.7119 9.16174 24.6641 7.81205C24.6164 6.46236 24.0583 5.18105 23.1027 4.22675Z" fill="#EE3F4C"/>
</svg>
