<svg width="16" height="15" viewBox="0 0 16 15" fill="none" xmlns="http://www.w3.org/2000/svg">
<path d="M8 14.75L6.9125 13.775C5.65 12.6375 4.60625 11.6563 3.78125 10.8313C2.95625 10.0063 2.3 9.26567 1.8125 8.60942C1.325 7.95317 0.984375 7.35005 0.790625 6.80005C0.596875 6.25005 0.5 5.68755 0.5 5.11255C0.5 3.93755 0.89375 2.9563 1.68125 2.1688C2.46875 1.3813 3.45 0.987549 4.625 0.987549C5.275 0.987549 5.89375 1.12505 6.48125 1.40005C7.06875 1.67505 7.575 2.06255 8 2.56255C8.425 2.06255 8.93125 1.67505 9.51875 1.40005C10.1063 1.12505 10.725 0.987549 11.375 0.987549C12.55 0.987549 13.5313 1.3813 14.3188 2.1688C15.1063 2.9563 15.5 3.93755 15.5 5.11255C15.5 5.68755 15.4031 6.25005 15.2094 6.80005C15.0156 7.35005 14.675 7.95317 14.1875 8.60942C13.7 9.26567 13.0437 10.0063 12.2188 10.8313C11.3938 11.6563 10.35 12.6375 9.0875 13.775L8 14.75ZM8 12.725C9.2 11.65 10.1875 10.7282 10.9625 9.95942C11.7375 9.19067 12.35 8.52192 12.8 7.95317C13.25 7.38442 13.5625 6.87817 13.7375 6.43442C13.9125 5.99067 14 5.55005 14 5.11255C14 4.36255 13.75 3.73755 13.25 3.23755C12.75 2.73755 12.125 2.48755 11.375 2.48755C10.7875 2.48755 10.2437 2.65317 9.74375 2.98442C9.24375 3.31567 8.9 3.73755 8.7125 4.25005H7.2875C7.1 3.73755 6.75625 3.31567 6.25625 2.98442C5.75625 2.65317 5.2125 2.48755 4.625 2.48755C3.875 2.48755 3.25 2.73755 2.75 3.23755C2.25 3.73755 2 4.36255 2 5.11255C2 5.55005 2.0875 5.99067 2.2625 6.43442C2.4375 6.87817 2.75 7.38442 3.2 7.95317C3.65 8.52192 4.2625 9.19067 5.0375 9.95942C5.8125 10.7282 6.8 11.65 8 12.725Z" fill="#6B6B6B"/>
</svg>
