<svg width="46" height="56" viewBox="0 0 46 56" fill="none" xmlns="http://www.w3.org/2000/svg">
<path fill-rule="evenodd" clip-rule="evenodd" d="M23.0012 25.1719H23.004C23.0156 25.1551 25.5814 21.438 25.9822 20.8557C25.9822 20.8531 25.9822 20.8531 25.9835 20.8518V20.8492C25.9876 20.8492 26.0006 20.8278 26.002 20.8245C26.002 20.8226 26.0047 20.8226 26.0047 20.8226V20.8206C26.0061 20.8193 26.0061 20.8167 26.0088 20.8167C26.0102 20.8155 26.0102 20.8129 26.0102 20.8116C26.0102 20.8116 26.0129 20.8116 26.0129 20.809L26.0143 20.8077H26.0164V20.8051C26.0164 20.8031 26.0177 20.8031 26.0177 20.8012C26.0321 20.7882 26.0102 20.7915 27.4183 20.7941C28.1097 20.7953 29.1457 20.7966 30.6988 20.796C30.7781 20.796 30.826 20.7182 30.7877 20.6527C28.8476 17.3967 30.0498 19.418 26.0259 12.6505C25.6033 11.8483 24.9523 11.0131 24.0044 11.0131H23.0033C22.7578 11.0131 22.5382 11.0066 22.3351 11.0066C21.7067 11.0066 21.2464 11.0701 20.7151 11.5896C20.6036 11.6959 20.646 11.8704 20.7841 11.9287H20.7882C20.7889 11.9294 20.8163 11.9385 20.8279 11.9443C20.9517 12.0085 20.9024 12.1914 20.7575 12.1914C20.7342 12.1927 16.5497 12.2432 16.5285 12.2432C14.5104 12.2491 14.4194 12.9131 14.7997 13.5149C14.8892 13.6517 15.4411 14.3709 15.5396 14.4993C15.5834 14.557 15.673 14.5499 15.7085 14.4876C15.8692 14.2049 16.4211 14.2146 17.1556 14.225C17.3977 14.2282 17.6589 14.2315 17.9331 14.2243C18.1595 14.2243 18.4269 14.3981 18.5301 14.5849C18.5301 14.5862 18.5301 14.5862 18.5329 14.5888C18.6614 14.8339 18.5801 14.9649 18.5206 15.105C18.5185 15.105 18.5185 15.1076 18.5165 15.1089C17.7204 16.4493 16.2816 18.8655 15.2154 20.6533C15.1997 20.6838 15.1997 20.7201 15.2182 20.7493C15.236 20.7798 15.2681 20.7973 15.3044 20.7973H19.9293C20.0059 20.7973 19.8794 20.6456 21.4913 22.9853C21.5111 22.9853 21.5911 23.1273 23.0005 25.1726L23.0012 25.1719Z" fill="url(#paint0_linear_410_5936)"/>
<path fill-rule="evenodd" clip-rule="evenodd" d="M45.9993 34.1825V6.7318C45.9993 6.67863 45.9549 6.63647 45.8981 6.63647H0.100528C0.0465026 6.63647 0 6.67863 0 6.7318V34.1825C0 40.0116 2.3942 45.4887 6.73741 49.6104C11.0786 53.7302 16.8558 55.9998 22.9997 55.9998C35.6826 55.9998 45.9993 46.213 45.9993 34.1825ZM2.33197 8.84259C2.32787 8.84 2.32376 8.8387 2.32171 8.83416C2.32034 8.83416 2.31624 8.83287 2.31351 8.83027C2.31351 8.82897 2.31214 8.82897 2.31351 8.82638C2.31351 8.82508 2.31351 8.82508 2.31624 8.82508C43.8472 8.82508 43.6701 8.80758 43.6899 8.82638C43.6899 8.83027 43.6851 8.83416 43.6803 8.83416C43.5531 9.07475 37.3676 13.8929 32.8965 16.2171C32.8965 16.219 32.8938 16.219 32.8924 16.221C31.987 16.6113 31.4782 17.6359 31.8174 18.597C31.8187 18.5989 31.8187 18.6009 31.8215 18.6035C31.8352 18.6424 31.8823 18.7617 31.8892 18.7688C31.8988 18.8013 32.0417 19.0516 34.2772 22.8452C34.2957 22.8737 34.2957 22.91 34.2772 22.9385C34.2601 22.9697 34.2266 22.9865 34.1911 22.9865C31.6423 22.993 30.0332 22.9898 29.0156 22.9872C27.1227 22.9813 27.2779 22.9755 27.2362 23.0306C25.0697 26.1725 24.5295 26.9526 24.4289 27.0998C24.4269 27.1011 24.4269 27.1031 24.4248 27.105C24.4248 27.1076 24.4207 27.1095 24.418 27.1115V27.1128C24.418 27.1154 24.418 27.1154 24.4166 27.1167C24.4146 27.1206 24.4125 27.1225 24.4098 27.1245V27.127L24.4084 27.1283C23.1214 28.9804 23.0468 29.2197 22.9169 29.0465C22.4806 28.4143 18.9129 23.2414 18.7604 23.0254C18.7604 23.0241 18.759 23.0215 18.759 23.0215C18.759 23.0202 18.7563 23.0202 18.7563 23.0202C18.7542 23.0163 18.7522 23.0138 18.7508 23.0131V23.0105V23.0092C18.7488 23.0066 18.7467 23.0053 18.7467 23.0027L18.744 23.0014C18.7426 23.0014 18.7426 22.9995 18.7426 22.9995C18.7426 22.9982 18.7426 22.9982 18.7399 22.9956L18.7385 22.9943C18.7385 22.9924 18.7385 22.9924 18.7358 22.9904C18.7358 22.9748 17.6142 22.9807 16.2677 22.9859C14.2626 22.9943 11.7597 23.0027 11.7228 22.9405C11.6701 22.8562 11.7358 22.8588 12.3683 21.7531C12.3793 21.7343 14.0246 18.9426 14.0383 18.9167C14.0582 18.8972 14.1375 18.7221 14.1525 18.6819C14.1525 18.6819 14.1525 18.68 14.1553 18.678C14.1696 18.6437 14.1819 18.61 14.1936 18.5749V18.571C14.1942 18.5678 14.2223 18.4783 14.2237 18.4738C14.2237 18.4699 14.2237 18.4679 14.2257 18.4647C14.2278 18.455 14.2312 18.4452 14.2339 18.4362C14.2339 18.4323 14.2339 18.4303 14.2353 18.4284C14.4473 17.5568 14.0205 16.6386 13.1062 16.2203H13.1021C11.1292 15.2217 6.3606 12.2043 2.33129 8.84584L2.33197 8.84259ZM9.25608 20.213C7.33306 19.2357 4.38971 17.4985 2.35317 16.2527C2.32513 16.2352 2.30735 16.2054 2.30735 16.1723C2.32855 13.3184 2.25469 13.3677 2.36548 13.3145C2.39899 13.2996 2.44139 13.3054 2.47216 13.3281C7.14773 16.9408 10.1677 18.228 10.2203 18.3512C10.2525 18.3629 10.2826 18.3758 10.3147 18.3901C10.3161 18.3914 10.3352 18.4031 10.3386 18.4031C10.3414 18.4057 10.3455 18.407 10.3468 18.407C10.8878 18.6904 11.1025 19.311 10.8577 19.8427C10.8556 19.844 10.8556 19.8479 10.8543 19.8505L10.7879 19.9679V19.9718C10.7831 19.9802 10.7797 19.986 10.7763 19.9906V19.9912C10.7763 19.9925 10.7756 19.9938 10.7743 19.9957C10.7264 20.0813 10.5267 20.4412 9.823 21.711C10.0972 21.1546 9.85035 20.5385 9.3696 20.2733V20.2707C9.33677 20.2545 9.30737 20.2363 9.27454 20.2227C9.27317 20.2214 9.27044 20.2188 9.26633 20.2175H9.26497C9.26223 20.2156 9.25881 20.2136 9.25676 20.2117L9.25608 20.213ZM36.1626 21.6831V21.6792C36.1524 21.6604 35.2271 19.9782 35.2073 19.9594L35.1512 19.855C35.1498 19.8524 35.1498 19.8524 35.1498 19.8511C34.9023 19.3362 35.102 18.693 35.6621 18.4057C35.6826 18.3862 35.7715 18.3661 35.7845 18.3402C41.2937 15.4097 43.417 13.2211 43.6373 13.3145C43.6714 13.332 43.6933 13.3644 43.6933 13.4001C43.6749 16.2741 43.7357 16.1989 43.6468 16.2527C41.6766 17.4628 38.6642 19.239 36.7467 20.213C36.7453 20.2149 36.7426 20.2169 36.7384 20.2188H36.7371C36.735 20.2201 36.7309 20.2227 36.7289 20.224C36.6947 20.2376 36.6666 20.2532 36.6366 20.2701C36.6366 20.2713 36.6345 20.2713 36.6345 20.2713H36.6325C36.6222 20.2908 36.0655 20.5586 36.0655 21.2304C36.0655 21.3926 36.1038 21.5495 36.1702 21.6876C36.1702 21.6915 36.1715 21.6935 36.1743 21.6973H36.1715L36.162 21.6824L36.1626 21.6831ZM2.30804 22.8899C2.3265 19.7409 2.23144 19.403 2.45849 19.5256C4.37398 20.5437 6.51858 21.637 6.54251 21.6494C6.54525 21.6494 6.54661 21.6507 6.54935 21.6507C8.89089 22.8335 9.34361 22.9852 9.16786 22.9852C6.70185 22.9703 5.12145 22.9774 4.11001 22.9846C3.54036 22.9885 3.15055 22.9924 2.88453 22.9924C2.29094 22.9924 2.30872 22.9729 2.30872 22.8899H2.30804ZM36.8547 22.9282C42.7804 20.1112 43.694 19.2279 43.694 19.6067C43.6509 22.8905 43.7857 22.9846 43.5935 22.9846C41.8031 22.982 40.471 22.9839 39.4869 22.9852C38.8625 22.9865 38.3777 22.9872 38.0036 22.9872C36.8636 22.9872 36.7501 22.9774 36.8554 22.9275L36.8547 22.9282ZM39.9711 25.1738C43.9587 25.1609 43.694 25.1485 43.694 25.2672C43.6537 27.164 43.785 27.3611 43.5935 27.3611C38.9699 27.356 35.6292 27.3605 33.2193 27.3644C26.7835 27.3761 26.9845 27.3871 27.1063 27.2139C28.5984 25.0655 28.4781 25.1719 28.569 25.1719C31.0781 25.179 33.1714 25.1816 34.918 25.1816C37.0982 25.1816 38.7374 25.1777 39.9711 25.1738ZM2.30872 25.2672C2.30872 25.2134 2.35454 25.1719 2.40856 25.1719H17.4351C17.4693 25.1719 17.5014 25.1894 17.5185 25.216C17.6539 25.4125 18.6708 26.8878 18.8958 27.2139C19.036 27.4137 18.7426 27.3845 14.9978 27.3547C12.553 27.3352 8.6365 27.3164 2.40788 27.3605C2.21503 27.3605 2.34975 27.1478 2.30804 25.2666L2.30872 25.2672Z" fill="url(#paint1_linear_410_5936)"/>
<path fill-rule="evenodd" clip-rule="evenodd" d="M23.0012 25.1719H23.004C23.0156 25.1551 25.5814 21.438 25.9822 20.8557C25.9822 20.8531 25.9822 20.8531 25.9835 20.8518V20.8492C25.9876 20.8492 26.0006 20.8278 26.002 20.8245C26.002 20.8226 26.0047 20.8226 26.0047 20.8226V20.8206C26.0061 20.8193 26.0061 20.8167 26.0088 20.8167C26.0102 20.8155 26.0102 20.8129 26.0102 20.8116C26.0102 20.8116 26.0129 20.8116 26.0129 20.809L26.0143 20.8077H26.0164V20.8051C26.0164 20.8031 26.0177 20.8031 26.0177 20.8012C26.0321 20.7882 26.0102 20.7915 27.4183 20.7941C28.1097 20.7953 29.1457 20.7966 30.6988 20.796C30.7781 20.796 30.826 20.7182 30.7877 20.6527C28.8476 17.3967 30.0498 19.418 26.0259 12.6505C25.6033 11.8483 24.9523 11.0131 24.0044 11.0131H23.0033C22.7578 11.0131 22.5382 11.0066 22.3351 11.0066C21.7067 11.0066 21.2464 11.0701 20.7151 11.5896C20.6036 11.6959 20.646 11.8704 20.7841 11.9287H20.7882C20.7889 11.9294 20.8163 11.9385 20.8279 11.9443C20.9517 12.0085 20.9024 12.1914 20.7575 12.1914C20.7342 12.1927 16.5497 12.2432 16.5285 12.2432C14.5104 12.2491 14.4194 12.9131 14.7997 13.5149C14.8892 13.6517 15.4411 14.3709 15.5396 14.4993C15.5834 14.557 15.673 14.5499 15.7085 14.4876C15.8692 14.2049 16.4211 14.2146 17.1556 14.225C17.3977 14.2282 17.6589 14.2315 17.9331 14.2243C18.1595 14.2243 18.4269 14.3981 18.5301 14.5849C18.5301 14.5862 18.5301 14.5862 18.5329 14.5888C18.6614 14.8339 18.5801 14.9649 18.5206 15.105C18.5185 15.105 18.5185 15.1076 18.5165 15.1089C17.7204 16.4493 16.2816 18.8655 15.2154 20.6533C15.1997 20.6838 15.1997 20.7201 15.2182 20.7493C15.236 20.7798 15.2681 20.7973 15.3044 20.7973H19.9293C20.0059 20.7973 19.8794 20.6456 21.4913 22.9853C21.5111 22.9853 21.5911 23.1273 23.0005 25.1726L23.0012 25.1719Z" fill="url(#paint2_linear_410_5936)"/>
<path fill-rule="evenodd" clip-rule="evenodd" d="M23.0012 25.1719H23.004C23.0156 25.1551 25.5814 21.438 25.9822 20.8557C25.9822 20.8531 25.9822 20.8531 25.9835 20.8518V20.8492C25.9876 20.8492 26.0006 20.8278 26.002 20.8245C26.002 20.8226 26.0047 20.8226 26.0047 20.8226V20.8206C26.0061 20.8193 26.0061 20.8167 26.0088 20.8167C26.0102 20.8155 26.0102 20.8129 26.0102 20.8116C26.0102 20.8116 26.0129 20.8116 26.0129 20.809L26.0143 20.8077H26.0164V20.8051C26.0164 20.8031 26.0177 20.8031 26.0177 20.8012C26.0321 20.7882 26.0102 20.7915 27.4183 20.7941C28.1097 20.7953 29.1457 20.7966 30.6988 20.796C30.7781 20.796 30.826 20.7182 30.7877 20.6527C28.8476 17.3967 30.0498 19.418 26.0259 12.6505C25.6033 11.8483 24.9523 11.0131 24.0044 11.0131H23.0033C22.7578 11.0131 22.5382 11.0066 22.3351 11.0066C21.7067 11.0066 21.2464 11.0701 20.7151 11.5896C20.6036 11.6959 20.646 11.8704 20.7841 11.9287H20.7882C20.7889 11.9294 20.8163 11.9385 20.8279 11.9443C20.9517 12.0085 20.9024 12.1914 20.7575 12.1914C20.7342 12.1927 16.5497 12.2432 16.5285 12.2432C14.5104 12.2491 14.4194 12.9131 14.7997 13.5149C14.8892 13.6517 15.4411 14.3709 15.5396 14.4993C15.5834 14.557 15.673 14.5499 15.7085 14.4876C15.8692 14.2049 16.4211 14.2146 17.1556 14.225C17.3977 14.2282 17.6589 14.2315 17.9331 14.2243C18.1595 14.2243 18.4269 14.3981 18.5301 14.5849C18.5301 14.5862 18.5301 14.5862 18.5329 14.5888C18.6614 14.8339 18.5801 14.9649 18.5206 15.105C18.5185 15.105 18.5185 15.1076 18.5165 15.1089C17.7204 16.4493 16.2816 18.8655 15.2154 20.6533C15.1997 20.6838 15.1997 20.7201 15.2182 20.7493C15.236 20.7798 15.2681 20.7973 15.3044 20.7973H19.9293C20.0059 20.7973 19.8794 20.6456 21.4913 22.9853C21.5111 22.9853 21.5911 23.1273 23.0005 25.1726L23.0012 25.1719Z" fill="url(#paint3_linear_410_5936)"/>
<path d="M43.6944 29.6412V33.9128C43.6903 34.2214 43.6821 34.5262 43.6663 34.8297C43.6198 35.5962 43.5398 36.2959 43.4195 36.9859C43.4113 37.0293 43.3689 37.0637 43.321 37.0637H36.9877C36.9734 37.0637 36.9577 37.0598 36.946 37.0546C36.9358 37.0507 36.9255 37.0449 36.918 37.0378C36.9077 37.03 36.8995 37.019 36.8961 37.0073C36.89 36.9956 36.8879 36.9839 36.8879 36.971V34.9724C36.8879 34.9704 36.8859 34.9685 36.8859 34.9665V34.9613C36.8859 34.9594 36.8838 34.9568 36.8838 34.9555V34.9516C36.8818 34.9497 36.8817 34.9471 36.8817 34.9471C36.8817 34.9458 36.8797 34.9438 36.8797 34.9438V34.9419L36.8776 34.9406C36.8776 34.9386 36.8776 34.9367 36.8756 34.9367C36.8756 34.9347 36.8756 34.9328 36.8735 34.9328C36.8735 34.9315 36.8735 34.9315 36.8715 34.9289C36.8715 34.927 36.8715 34.927 36.8694 34.925L36.8674 34.9231C36.8674 34.9211 36.8653 34.9192 36.8653 34.9192C36.8633 34.9172 36.8633 34.9172 36.8612 34.9153L36.8592 34.9133L36.8551 34.9095C36.853 34.9075 36.853 34.9075 36.851 34.9049C36.8489 34.9049 36.8469 34.903 36.8469 34.901C36.8448 34.901 36.8428 34.8991 36.8407 34.8991C36.8387 34.8971 36.8346 34.8952 36.8325 34.8932H36.8284C36.8161 34.8874 36.8024 34.8835 36.786 34.8835H30.8084C30.7639 34.8835 30.7243 34.9101 30.7119 34.9542C30.7099 34.962 30.7078 34.9711 30.7078 34.9788V35.3491C30.7078 35.3815 30.7263 35.412 30.7557 35.4289L31.2802 35.7149L32.068 36.1461L36.8339 38.7445L37.6559 39.1926L41.9888 41.5589C41.1285 43.4467 39.9673 45.1703 38.5599 46.6839C38.27 46.9984 37.967 47.3051 37.6552 47.6008C34.2024 50.8516 29.6253 52.9429 24.5326 53.2957C24.5148 53.2957 24.4984 53.2918 24.4847 53.2866C24.4744 53.2808 24.4649 53.2769 24.4587 53.2717C24.4484 53.262 24.4402 53.2529 24.4348 53.2393C24.4286 53.2276 24.4245 53.2147 24.4245 53.201V44.5795C24.4245 44.5277 24.4703 44.4862 24.5271 44.4862H30.3639C30.4206 44.4862 30.4644 44.5283 30.4644 44.5795V45.9368C30.4644 45.9653 30.4822 45.9939 30.5088 46.0094C30.6531 45.9751 30.7099 45.9426 30.7639 45.9102C30.8364 45.87 30.9089 45.8246 30.9786 45.7825C30.9985 45.7695 31.021 45.7539 31.0409 45.7423C31.1175 45.6988 31.19 45.6508 31.2625 45.6028C31.3609 45.5425 31.4512 45.4809 31.5435 45.418C31.6523 45.3422 31.7589 45.2695 31.8649 45.1917C31.8889 45.1742 31.9094 45.1593 31.9292 45.1437C32.0174 45.0828 32.1043 45.016 32.1884 44.9531C32.343 44.8331 32.4476 44.7488 32.5522 44.6651C32.6568 44.5815 32.7594 44.4952 32.862 44.4058C32.9386 44.3409 33.0145 44.2741 33.089 44.2054C33.1068 44.1866 33.1191 44.1639 33.1191 44.1373V43.7579V43.756C33.1191 43.754 33.1191 43.754 33.1171 43.7521V43.7462C33.1171 43.745 33.115 43.745 33.115 43.7424V43.7391C33.113 43.7365 33.113 43.7352 33.113 43.7352C33.113 43.7333 33.1109 43.7313 33.1109 43.7313C33.1109 43.7294 33.1089 43.7294 33.1089 43.7274C33.1089 43.7274 33.1089 43.7255 33.1068 43.7236C33.1068 43.7236 33.1068 43.7216 33.1048 43.7216C33.1048 43.7197 33.1048 43.7197 33.1027 43.7177C33.1027 43.7158 33.1007 43.7158 33.1007 43.7158C33.1007 43.7138 33.0986 43.7119 33.0986 43.7119L33.0945 43.708L33.0925 43.706C33.0904 43.7041 33.0904 43.7022 33.0884 43.7022C33.0863 43.7002 33.0863 43.7002 33.0843 43.6983C33.0822 43.6963 33.0802 43.6963 33.0781 43.6944C33.0761 43.6924 33.074 43.6924 33.072 43.6905C33.0699 43.6885 33.0678 43.6885 33.0678 43.6872L24.4758 38.9968C24.4594 38.989 24.4478 38.9774 24.4396 38.9644C24.43 38.9495 24.4238 38.9339 24.4238 38.917V31.1191L25.4653 29.59C25.4852 29.5634 25.5153 29.5479 25.5495 29.5479H43.5925C43.6486 29.5479 43.693 29.59 43.693 29.6406L43.6944 29.6412Z" fill="#DB162F"/>
<path d="M38.5612 46.6838C38.2719 46.9983 37.9683 47.3051 37.6565 47.6008C34.2036 50.8509 29.6272 52.9423 24.5338 53.2957C24.5161 53.2957 24.4996 53.2918 24.486 53.286C24.4757 53.2801 24.4661 53.2762 24.46 53.2711C24.4504 53.2613 24.4422 53.2523 24.436 53.2386C24.4299 53.227 24.4258 53.2133 24.4258 53.2004V54.0317C24.4258 54.0337 24.4278 54.0356 24.4278 54.0376V54.0486C24.4299 54.0505 24.4299 54.0525 24.4299 54.0525C24.4299 54.0544 24.4299 54.0564 24.4319 54.0583V54.0622C24.434 54.0641 24.434 54.0661 24.434 54.0661C24.434 54.0674 24.436 54.0674 24.436 54.0693C24.436 54.0713 24.4381 54.0732 24.4381 54.0732C24.4381 54.0752 24.4401 54.0771 24.4401 54.0771C24.4401 54.0791 24.4422 54.0791 24.4422 54.0817C24.4422 54.083 24.4442 54.083 24.4442 54.0849C24.4463 54.0849 24.4463 54.0868 24.4463 54.0888C24.4483 54.0888 24.4483 54.0907 24.4504 54.0907C24.4504 54.092 24.4525 54.092 24.4525 54.0946C24.4545 54.0966 24.4545 54.0966 24.4566 54.0985C24.4566 54.0985 24.4586 54.1005 24.4607 54.1005C24.4607 54.1024 24.4627 54.1044 24.4648 54.1044C24.4648 54.1063 24.4668 54.1063 24.4689 54.1082C24.4709 54.1082 24.473 54.1102 24.475 54.1121C24.4771 54.1141 24.4784 54.1141 24.4825 54.116H24.4866C24.501 54.1238 24.5167 54.1277 24.5345 54.1277C29.6279 53.7723 34.2043 51.6836 37.6572 48.4328C37.969 48.1351 38.2719 47.8303 38.5619 47.5158C40.0431 45.9199 41.2515 44.0977 42.1235 42.0933V41.6322L41.9908 41.5596C41.1305 43.4473 39.9686 45.1709 38.5619 46.6845L38.5612 46.6838Z" fill="#50000B"/>
<path d="M31.2808 35.7155H36.7859C36.8023 35.7155 36.816 35.7194 36.8283 35.7253C36.8406 35.7292 36.8481 35.735 36.8563 35.7428C36.8666 35.7525 36.8727 35.7616 36.8789 35.7733C36.883 35.7849 36.8871 35.796 36.8871 35.8096V34.9724C36.8871 34.9704 36.885 34.9685 36.885 34.9666V34.9614C36.885 34.9594 36.883 34.9568 36.883 34.9555V34.9516C36.8809 34.9497 36.8809 34.9477 36.8809 34.9477C36.8809 34.9458 36.8789 34.9439 36.8789 34.9439V34.9419L36.8768 34.9406C36.8768 34.9387 36.8768 34.9367 36.8748 34.9367C36.8748 34.9348 36.8748 34.9328 36.8727 34.9328C36.8727 34.9309 36.8727 34.9309 36.8707 34.9289C36.8707 34.927 36.8707 34.927 36.8686 34.925L36.8666 34.9231C36.8666 34.9212 36.8645 34.9192 36.8645 34.9192C36.8625 34.9173 36.8625 34.9173 36.8604 34.9153L36.8584 34.9134L36.8543 34.9095C36.8522 34.9075 36.8522 34.9075 36.8502 34.9049C36.8481 34.9049 36.8461 34.9036 36.8461 34.9011C36.844 34.9011 36.842 34.8991 36.8399 34.8991C36.8379 34.8972 36.8338 34.8952 36.8317 34.8933H36.8276C36.8153 34.8874 36.8016 34.8835 36.7852 34.8835H30.8076C30.7631 34.8835 30.7234 34.9101 30.7111 34.9542C30.7091 34.962 30.707 34.9711 30.707 34.9789V35.3492C30.707 35.3816 30.7255 35.4121 30.7549 35.4289L31.2794 35.7149L31.2808 35.7155Z" fill="#50000B"/>
<path d="M43.6652 34.8291C43.6187 35.5956 43.5386 36.2953 43.4183 36.9852C43.4101 37.0287 43.3677 37.0637 43.3198 37.0637H36.9866C36.9722 37.0637 36.9565 37.0598 36.9448 37.054C36.9346 37.0501 36.9243 37.0443 36.9168 37.0371C36.9066 37.0293 36.8983 37.0183 36.8949 37.0066C36.8888 36.995 36.8867 36.9839 36.8867 36.9703V37.8127C36.8867 37.8146 36.8867 37.8166 36.8888 37.8185V37.8224C36.8888 37.8244 36.8888 37.8263 36.8908 37.8263V37.8315C36.8929 37.8315 36.8929 37.8334 36.8929 37.8354L36.8949 37.8367V37.8386C36.8949 37.8386 36.897 37.8406 36.897 37.8425L36.899 37.8445C36.899 37.8464 36.9011 37.8484 36.9011 37.8484C36.9011 37.8503 36.9031 37.8503 36.9031 37.8523C36.9052 37.8542 36.9052 37.8542 36.9052 37.8561C36.9072 37.8561 36.9072 37.8574 36.9093 37.8574C36.9093 37.8594 36.9113 37.8613 36.9113 37.8613C36.9134 37.8633 36.9134 37.8633 36.9154 37.8652L36.9175 37.8672L36.9195 37.8691C36.9195 37.8691 36.9216 37.8711 36.9236 37.8711C36.9257 37.8724 36.9257 37.8749 36.9277 37.8749C36.9298 37.8769 36.9319 37.8788 36.9339 37.8788C36.938 37.8808 36.9401 37.8827 36.9421 37.8847H36.9462C36.9578 37.8905 36.9743 37.8944 36.9879 37.8944H43.3212C43.3697 37.8944 43.4114 37.86 43.4197 37.8159C43.54 37.126 43.6207 36.4263 43.6665 35.6578C43.6829 35.3563 43.6905 35.0515 43.6946 34.7428V33.9121C43.6905 34.2208 43.6823 34.5256 43.6665 34.8291H43.6652Z" fill="#50000B"/>
<path d="M24.4272 39.7594V39.7633C24.4272 39.7653 24.4292 39.7672 24.4292 39.7672V39.7731C24.4313 39.7731 24.4313 39.775 24.4313 39.777C24.4313 39.777 24.4313 39.7789 24.4333 39.7808C24.4333 39.7808 24.4333 39.7828 24.4354 39.7847V39.7867C24.4374 39.7886 24.4374 39.7906 24.4374 39.7906C24.4395 39.7925 24.4395 39.7945 24.4415 39.7945C24.4415 39.7964 24.4415 39.7964 24.4436 39.7984C24.4436 39.8003 24.4456 39.8003 24.4456 39.8022C24.4477 39.8042 24.4477 39.8042 24.4497 39.8061C24.4497 39.8061 24.4518 39.8074 24.4518 39.81C24.4538 39.81 24.4538 39.812 24.4559 39.8139C24.4579 39.8139 24.4579 39.8159 24.46 39.8178C24.462 39.8178 24.4641 39.8198 24.4661 39.8217C24.4661 39.8217 24.4682 39.823 24.4702 39.8256C24.4723 39.8275 24.4764 39.8275 24.4784 39.8295L32.864 44.4071C32.9406 44.3422 33.0165 44.2754 33.091 44.2067C33.1088 44.1872 33.1211 44.1646 33.1211 44.1386V43.7593V43.7573C33.1211 43.7554 33.1211 43.7554 33.119 43.7534V43.7476C33.119 43.7456 33.117 43.7456 33.117 43.7437V43.7398C33.1149 43.7379 33.1149 43.7359 33.1149 43.7359C33.1149 43.734 33.1129 43.732 33.1129 43.732C33.1129 43.7301 33.1108 43.7301 33.1108 43.7281C33.1108 43.7281 33.1108 43.7262 33.1088 43.7242C33.1088 43.7242 33.1088 43.7223 33.1067 43.7223C33.1067 43.7203 33.1067 43.7203 33.1047 43.7184C33.1047 43.7165 33.1026 43.7165 33.1026 43.7165C33.1026 43.7145 33.1006 43.7126 33.1006 43.7126L33.0965 43.7087L33.0944 43.7067C33.0924 43.7048 33.0924 43.7028 33.0903 43.7028C33.0883 43.7009 33.0883 43.7009 33.0862 43.6989C33.0842 43.6976 33.0821 43.6976 33.0801 43.6951C33.078 43.6931 33.076 43.6931 33.0739 43.6912C33.0719 43.6899 33.0698 43.6899 33.0698 43.6879L24.4778 38.9975C24.462 38.9897 24.4497 38.978 24.4415 38.9651C24.4313 38.9501 24.4258 38.9346 24.4258 38.9177V39.7491C24.4258 39.7504 24.4278 39.7523 24.4278 39.7549V39.7601L24.4272 39.7594Z" fill="#50000B"/>
<path d="M14.7692 35.7246C14.7816 35.7285 14.7891 35.7343 14.7973 35.7421H14.7993C14.8075 35.7518 14.8151 35.7609 14.8192 35.7726C14.8253 35.7843 14.8274 35.7953 14.8274 35.8089V34.9659C14.8274 34.9646 14.8274 34.962 14.8253 34.9607V34.9568C14.8253 34.9549 14.8233 34.9529 14.8233 34.9516C14.8233 34.9516 14.8233 34.9497 14.8212 34.9477V34.9438L14.8192 34.9419V34.9399C14.8192 34.938 14.8171 34.938 14.8171 34.9361C14.8171 34.9361 14.8151 34.9341 14.8151 34.9322L14.813 34.9302C14.813 34.9283 14.811 34.9263 14.811 34.9263C14.8089 34.9244 14.8089 34.9244 14.8089 34.9224C14.8069 34.9224 14.8069 34.9211 14.8048 34.9185L14.8028 34.9166C14.8007 34.9147 14.8007 34.9147 14.7987 34.9127V34.9108H14.7966L14.7946 34.9088C14.7946 34.9088 14.7925 34.9069 14.7904 34.9069C14.7904 34.9056 14.7884 34.9036 14.7863 34.9036C14.7843 34.9017 14.7822 34.8997 14.7802 34.8997C14.7781 34.8978 14.774 34.8958 14.772 34.8958C14.772 34.8939 14.7699 34.8939 14.7679 34.8939C14.7556 34.8881 14.7419 34.8848 14.7255 34.8848H2.39681C2.38245 34.8848 2.36672 34.879 2.35646 34.8693C2.34415 34.8595 2.33868 34.8459 2.33663 34.8329C2.3209 34.5275 2.31065 34.2208 2.30859 33.9121V34.7428C2.31065 35.0521 2.3209 35.3589 2.33663 35.6636V35.6682V35.6701C2.33663 35.6701 2.33663 35.6721 2.33868 35.6721V35.676V35.6779C2.34074 35.6779 2.34074 35.6792 2.34074 35.6792C2.34074 35.6812 2.34074 35.6812 2.34279 35.6812V35.685C2.34279 35.685 2.34484 35.685 2.34484 35.687L2.34689 35.6889V35.6909C2.34894 35.6909 2.34894 35.6928 2.34894 35.6928L2.35099 35.6948L2.35304 35.6967C2.3551 35.6987 2.3551 35.6987 2.35715 35.7006L2.3592 35.7026C2.36125 35.7026 2.36125 35.7045 2.3633 35.7045C2.3633 35.7045 2.36535 35.7064 2.36741 35.7064C2.36741 35.7077 2.36946 35.7077 2.37151 35.7103C2.37972 35.7142 2.38929 35.7162 2.3975 35.7162H14.7262C14.7426 35.7162 14.7563 35.7201 14.7686 35.7259L14.7692 35.7246Z" fill="#50000B"/>
<path d="M21.4745 53.2957C12.985 52.7036 5.36885 47.143 2.99312 38.8022H2.89259C2.95072 39.203 2.7394 38.8185 3.11758 40.0551C3.12852 40.0869 3.34325 40.8495 3.77272 41.8682C3.77477 41.8702 3.77477 41.8721 3.77477 41.8741C3.86231 41.9992 5.87696 47.6222 12.0673 51.2316C14.136 52.5409 17.6975 53.8644 21.4738 54.1277C21.6742 54.1277 21.5299 53.7665 21.5764 53.203C21.5764 53.2561 21.5306 53.2964 21.4738 53.2964L21.4745 53.2957Z" fill="#50000B"/>
<path d="M21.5772 53.2024C21.5772 53.229 21.5649 53.2543 21.5451 53.2712C21.5273 53.2861 21.5006 53.2958 21.4746 53.2958C19.1249 53.1317 16.8859 52.6019 14.8261 51.7628C14.5567 51.6539 14.2934 51.5358 14.0301 51.4178C13.9679 51.3893 13.9056 51.3607 13.8434 51.3316C13.669 51.2499 13.498 51.1636 13.3271 51.078C13.2047 51.0171 13.0823 50.9574 12.9633 50.8951C12.8005 50.8095 12.6412 50.7201 12.4825 50.6319C12.3697 50.569 12.2555 50.5061 12.1454 50.4412C11.8999 50.3005 11.6585 50.1533 11.4212 50.0009C11.3753 49.9724 11.3309 49.9419 11.2844 49.9114C11.0813 49.7798 10.8802 49.6442 10.6812 49.5055C10.6292 49.4691 10.5766 49.4315 10.5226 49.3933C10.2955 49.2311 10.0705 49.0651 9.85101 48.8939C9.82708 48.8751 9.80451 48.8576 9.78263 48.8388C9.56789 48.6709 9.35453 48.4971 9.14732 48.32C9.12338 48.2993 9.09945 48.2779 9.07483 48.2571C8.84163 48.0587 8.61459 47.8531 8.39165 47.643C8.18239 47.4465 7.98338 47.2488 7.78848 47.0464C7.75634 47.014 7.7242 46.9816 7.69206 46.9492C7.58332 46.8344 7.47869 46.7183 7.37269 46.6042C7.26191 46.4823 7.14975 46.3623 7.04102 46.2384C6.9446 46.1282 6.85022 46.016 6.7579 45.9032C6.66148 45.7884 6.56505 45.6736 6.47273 45.5575C6.31407 45.3572 6.15747 45.1574 6.00634 44.9532C5.8935 44.8001 5.7875 44.6445 5.68082 44.4882C5.60217 44.376 5.52216 44.2632 5.44762 44.149C5.36145 44.0193 5.27871 43.8877 5.19664 43.7561C5.12621 43.6419 5.05372 43.5291 4.98533 43.415C4.90258 43.2814 4.82804 43.1445 4.75008 43.0071C4.68375 42.8923 4.61741 42.7762 4.55518 42.6601C4.42661 42.4215 4.30215 42.1809 4.18316 41.9371C4.15102 41.8761 4.12298 41.8113 4.09289 41.7503C3.98621 41.5214 3.88158 41.2925 3.7831 41.0603C3.78105 41.0526 3.77694 41.0448 3.77284 41.037C3.66821 40.7886 3.56973 40.5377 3.47536 40.2835C3.45348 40.2225 3.42886 40.1596 3.40492 40.0987C3.3126 39.8341 3.22233 39.565 3.13959 39.2958C3.13138 39.2712 3.12591 39.2478 3.1177 39.2232C3.0753 39.0838 3.03359 38.9431 2.99324 38.8023L9.11381 38.779C9.15552 38.779 9.19382 38.8036 9.20818 38.8439C9.67868 40.0928 10.3338 41.2536 11.1476 42.3067C12.1208 43.5667 13.3086 44.6672 14.6695 45.5556C14.8042 45.5459 14.8261 45.5134 14.8261 45.4771V34.9666C14.8261 34.9647 14.8261 34.9627 14.8241 34.9608V34.9569C14.8241 34.9549 14.822 34.953 14.822 34.9517C14.822 34.9517 14.822 34.9497 14.82 34.9478V34.9439L14.8179 34.942V34.94C14.8179 34.9381 14.8159 34.9381 14.8159 34.9361C14.8159 34.9361 14.8138 34.9342 14.8138 34.9322L14.8117 34.9309C14.8117 34.929 14.8097 34.927 14.8097 34.927C14.8076 34.9251 14.8076 34.9251 14.8076 34.9232C14.8056 34.9232 14.8056 34.9212 14.8035 34.9193L14.8015 34.9173C14.7994 34.9154 14.7994 34.9154 14.7974 34.9134V34.9115H14.7953L14.7933 34.9095C14.7933 34.9095 14.7912 34.9076 14.7892 34.9076C14.7892 34.9056 14.7871 34.9037 14.7851 34.9037C14.783 34.9018 14.781 34.8998 14.7789 34.8998C14.7769 34.8979 14.7728 34.8959 14.7707 34.8959C14.7707 34.8946 14.7687 34.8946 14.7666 34.8946C14.7543 34.8888 14.7406 34.8849 14.7242 34.8849H2.39486C2.3805 34.8849 2.36477 34.8791 2.35451 34.87C2.3422 34.8603 2.33605 34.8466 2.33468 34.8337C2.31827 34.5282 2.30869 34.2215 2.30664 33.9128V29.642C2.30664 29.5907 2.35246 29.5486 2.40717 29.5486H20.4522C20.4864 29.5486 20.5165 29.5641 20.5343 29.5907L21.5594 31.066L21.5758 53.2031L21.5772 53.2024Z" fill="#DB162F"/>
<path d="M2.0222 0.112075C2.0222 0.0913233 2.03998 0.0744629 2.06187 0.0744629H2.90986C2.93174 0.0744629 2.94952 0.0913233 2.94952 0.112075V2.84281C2.94952 3.20466 2.91601 3.48286 2.84899 3.67805C2.75872 3.9329 2.59528 4.13717 2.35798 4.29086C2.12068 4.4452 1.80884 4.52236 1.42109 4.52236C0.966319 4.52236 0.616182 4.40175 0.370675 4.15987C0.131323 3.92382 0.00822783 3.58078 2.1477e-05 3.13073C-0.000662385 3.11128 0.0150664 3.09507 0.0355823 3.09247L0.835018 3.00558C0.845959 3.00428 0.857585 3.00752 0.865107 3.01466C0.873998 3.02114 0.878785 3.03087 0.879469 3.04189C0.892462 3.27145 0.930074 3.43487 0.993674 3.53279C1.0942 3.68972 1.24739 3.76819 1.45323 3.76819C1.66044 3.76819 1.80747 3.71177 1.89364 3.59958C1.9798 3.48675 2.02289 3.25394 2.02289 2.89988V0.112723L2.0222 0.112075Z" fill="#DB162F"/>
<path d="M6.29766 2.71774C6.31065 2.71774 6.32296 2.7119 6.33048 2.70153C6.338 2.69115 6.33937 2.67818 6.33527 2.66651L5.7574 1.19122C5.75125 1.17631 5.73689 1.16658 5.71979 1.16658C5.70338 1.16658 5.68833 1.17696 5.68218 1.19122L5.11663 2.66651C5.11252 2.67818 5.11389 2.69115 5.12141 2.70153C5.12893 2.7119 5.14124 2.71774 5.15424 2.71774H6.29766ZM8.04698 4.396C8.05176 4.40767 8.0504 4.42064 8.04287 4.43166C8.03535 4.44204 8.02304 4.44852 8.01005 4.44852H7.0841C7.06768 4.44852 7.05264 4.4388 7.04717 4.42388L6.66421 3.47905C6.65805 3.46478 6.64369 3.45506 6.62659 3.45506H4.83898C4.82188 3.45506 4.80752 3.46478 4.80136 3.4797L4.4396 4.42323C4.43413 4.43815 4.41909 4.44852 4.40199 4.44852H3.50066C3.48767 4.44852 3.47536 4.44204 3.46783 4.43166C3.46031 4.42193 3.45894 4.40832 3.46373 4.39664L5.22809 0.099189C5.23425 0.0849225 5.24929 0.0751953 5.26571 0.0751953H6.19576C6.21217 0.0751953 6.22653 0.084274 6.23269 0.0985405L8.04698 4.396Z" fill="#DB162F"/>
<path d="M9.67129 4.44779C9.6542 4.44779 9.63915 4.43741 9.63368 4.4225L8.01429 0.125044C8.00951 0.113371 8.01156 0.100402 8.01908 0.0906748C8.0266 0.0809477 8.03891 0.0744629 8.05191 0.0744629H8.97649C8.99358 0.0744629 9.00863 0.0848385 9.0141 0.0997535L10.1329 3.20466C10.1384 3.22022 10.1541 3.2306 10.1712 3.2306C10.1883 3.2306 10.2033 3.22022 10.2088 3.20466L11.2914 0.10105C11.2968 0.085487 11.3119 0.0751114 11.3297 0.0751114H12.2317C12.2447 0.0751114 12.257 0.0809477 12.2645 0.0913233C12.272 0.101699 12.2741 0.114668 12.2693 0.125693L10.6472 4.42315C10.6417 4.43806 10.6266 4.44844 10.6096 4.44844H9.67198L9.67129 4.44779Z" fill="#DB162F"/>
<path d="M15.0603 2.71774C15.0733 2.71774 15.0856 2.7119 15.0931 2.70153C15.1006 2.69115 15.1027 2.67818 15.0979 2.66651L14.5201 1.19122C14.5139 1.17631 14.4995 1.16658 14.4824 1.16658C14.466 1.16658 14.451 1.17696 14.4448 1.19122L13.8793 2.66651C13.8745 2.67818 13.8765 2.69115 13.8841 2.70153C13.8916 2.7119 13.9039 2.71774 13.9169 2.71774H15.0603ZM16.8096 4.396C16.8144 4.40767 16.813 4.42064 16.8055 4.43166C16.798 4.44204 16.7857 4.44852 16.7727 4.44852H15.8467C15.8303 4.44852 15.8153 4.4388 15.8091 4.42388L15.4262 3.47905C15.42 3.46478 15.4057 3.45506 15.3886 3.45506H13.6009C13.5838 3.45506 13.5688 3.46478 13.5633 3.4797L13.2016 4.42323C13.1961 4.43815 13.181 4.44852 13.164 4.44852H12.2626C12.2496 4.44852 12.2373 4.44204 12.2298 4.43166C12.2223 4.42193 12.2209 4.40832 12.2257 4.39664L13.9901 0.099189C13.9962 0.0849225 14.0106 0.0751953 14.0277 0.0751953H14.9577C14.9741 0.0751953 14.9885 0.084274 14.9947 0.0985405L16.8089 4.396H16.8096Z" fill="#DB162F"/>
<path d="M19.1329 3.06414C19.1315 3.05376 19.1343 3.04403 19.1411 3.0356C19.148 3.02782 19.1582 3.02263 19.1685 3.02134L19.9973 2.94482C20.0178 2.94287 20.0363 2.95584 20.0404 2.97465C20.0972 3.24636 20.2052 3.44609 20.3652 3.57643C20.5321 3.71196 20.7564 3.77941 21.0395 3.77941C21.3391 3.77941 21.5654 3.7191 21.7172 3.59913C21.869 3.47916 21.945 3.33779 21.945 3.17697C21.945 3.07322 21.9135 2.98567 21.8492 2.91304C21.7856 2.84041 21.6735 2.77686 21.5141 2.72369C21.4054 2.68802 21.1565 2.62447 20.7687 2.53303C20.2695 2.41566 19.9194 2.2717 19.7183 2.1005C19.4352 1.85992 19.2936 1.56616 19.2936 1.22052C19.2936 0.997441 19.36 0.78928 19.4933 0.595386C19.6267 0.401491 19.8181 0.253638 20.0691 0.152476C20.3194 0.0513136 20.6224 0.000732422 20.9766 0.000732422C21.5552 0.000732422 21.9908 0.121349 22.2835 0.361934C22.5666 0.594737 22.7191 0.902764 22.7423 1.28731C22.743 1.29704 22.7396 1.30741 22.7321 1.31519C22.7252 1.32298 22.715 1.32752 22.704 1.32752L21.8478 1.36318C21.828 1.36448 21.8102 1.35086 21.8068 1.3327C21.7644 1.12519 21.6817 0.974096 21.5565 0.880067C21.4252 0.781498 21.2289 0.732214 20.967 0.732214C20.6962 0.732214 20.4849 0.784741 20.3317 0.890442C20.2332 0.957884 20.184 1.04867 20.184 1.16215C20.184 1.26591 20.2298 1.35345 20.3221 1.42738C20.4398 1.52076 20.7249 1.61868 21.1777 1.71984C21.6304 1.82101 21.9655 1.92606 22.1829 2.03436C22.3997 2.1433 22.57 2.29115 22.6924 2.47921C22.8155 2.66662 22.8764 2.89942 22.8764 3.17567C22.8764 3.42599 22.8032 3.66138 22.6562 3.87992C22.5098 4.09911 22.3019 4.26187 22.0339 4.36822C21.7651 4.47457 21.4307 4.52775 21.0306 4.52775C20.448 4.52775 20 4.4 19.6875 4.1445C19.3832 3.89548 19.1986 3.53623 19.1329 3.06608V3.06414Z" fill="#DB162F"/>
<path d="M24.8966 0.814459C24.8747 0.814459 24.8563 0.831968 24.8563 0.852719V2.01803C24.8563 2.03878 24.8741 2.05564 24.8966 2.05564H25.3664C25.733 2.05564 25.9785 2.03295 26.1023 1.98755C26.2261 1.94216 26.3225 1.87018 26.3929 1.77226C26.4634 1.67499 26.4982 1.5615 26.4982 1.43246C26.4982 1.27293 26.449 1.14194 26.3505 1.03883C26.252 0.935724 26.1269 0.870876 25.9764 0.844937C25.8657 0.825483 25.642 0.815107 25.3063 0.815107H24.8966V0.814459ZM23.9652 4.44852C23.9433 4.44852 23.9255 4.43166 23.9255 4.41026V0.112807C23.9255 0.0914072 23.9433 0.0751953 23.9652 0.0751953H25.4191C25.9853 0.0751953 26.3539 0.0972435 26.5263 0.140691C26.7902 0.206188 27.0118 0.348853 27.1903 0.568686C27.3688 0.78852 27.4577 1.07255 27.4577 1.42078C27.4577 1.68925 27.4064 1.91492 27.3038 2.09779C27.2012 2.28066 27.0706 2.42463 26.912 2.52903C26.754 2.63344 26.5926 2.70217 26.4292 2.73654C26.2069 2.77805 25.8848 2.7988 25.4635 2.7988H24.8966C24.8747 2.7988 24.8563 2.81631 24.8563 2.83706V4.41091C24.8563 4.43166 24.8385 4.44917 24.8159 4.44917H23.9645L23.9652 4.44852Z" fill="#DB162F"/>
<path d="M29.1066 2.25864C29.1066 2.75343 29.227 3.12955 29.4684 3.38505C29.7091 3.64055 30.0155 3.7683 30.3868 3.7683C30.7582 3.7683 31.0625 3.64185 31.3005 3.38829C31.5384 3.13474 31.6574 2.75408 31.6574 2.24697C31.6574 1.74635 31.5419 1.37218 31.31 1.12511C31.0782 0.878686 30.7705 0.754827 30.3868 0.754827C30.0032 0.754827 29.6934 0.879983 29.4588 1.12965C29.2236 1.37931 29.1066 1.75543 29.1066 2.25864ZM28.1472 2.28847C28.1472 1.84297 28.2169 1.4688 28.3578 1.16661C28.4631 0.944182 28.606 0.743803 28.7873 0.566769C28.9685 0.389735 29.1675 0.258094 29.3836 0.173143C29.6708 0.0577144 30.0018 0 30.3772 0C31.0563 0 31.6 0.199731 32.0076 0.599841C32.4152 0.999303 32.6196 1.55505 32.6196 2.26707C32.6196 2.97327 32.4172 3.52577 32.0124 3.92458C31.6082 4.32339 31.0666 4.52248 30.3896 4.52248C29.7036 4.52248 29.1586 4.32404 28.7538 3.92718C28.3489 3.53031 28.1465 2.98364 28.1465 2.28783L28.1472 2.28847Z" fill="#DB162F"/>
<path d="M34.5818 1.88639C34.5818 1.90779 34.5996 1.92465 34.6215 1.92465H35.2705C35.717 1.92465 35.996 1.90649 36.1068 1.87083C36.2183 1.83516 36.3051 1.77356 36.3681 1.68601C36.431 1.59847 36.4624 1.48887 36.4624 1.35788C36.4624 1.21068 36.4207 1.09201 36.338 1.00122C36.2552 0.911082 36.1383 0.853367 35.9871 0.830022C35.9112 0.820295 35.6856 0.815107 35.3074 0.815107H34.6208C34.5989 0.815107 34.5811 0.831968 34.5811 0.852719V1.88704L34.5818 1.88639ZM33.6907 4.44852C33.6689 4.44852 33.6504 4.43166 33.6504 4.41026V0.112807C33.6504 0.0920557 33.6682 0.0751953 33.6907 0.0751953H35.6097C36.1027 0.0751953 36.4604 0.114104 36.684 0.19257C36.9076 0.271035 37.0861 0.411106 37.2208 0.611486C37.3549 0.812513 37.4219 1.04207 37.4219 1.30082C37.4219 1.62895 37.32 1.90001 37.1169 2.11401C36.9316 2.30855 36.6628 2.43824 36.3099 2.50115C36.2935 2.50439 36.2812 2.51606 36.2778 2.53163C36.2744 2.54654 36.2819 2.5621 36.2956 2.57053C36.4563 2.66781 36.5924 2.77221 36.7032 2.88505C36.8338 3.01863 37.0109 3.25533 37.2331 3.59513L37.7577 4.39016C37.7652 4.40183 37.7659 4.41675 37.759 4.42842C37.7522 4.44074 37.7385 4.44787 37.7242 4.44787H36.7045C36.6908 4.44787 36.6785 4.44139 36.6717 4.43101L36.0104 3.49591C35.7717 3.15611 35.6076 2.94146 35.5201 2.85327C35.4318 2.76443 35.3388 2.70347 35.2404 2.67105C35.1419 2.63798 34.9853 2.62176 34.7719 2.62176H34.6228C34.601 2.62176 34.5832 2.63862 34.5832 2.66002V4.40961C34.5832 4.43037 34.5647 4.44787 34.5428 4.44787H33.6921L33.6907 4.44852Z" fill="#DB162F"/>
<path d="M39.4966 4.44803C39.4741 4.44803 39.4563 4.43117 39.4563 4.40977V0.851582C39.4563 0.830831 39.4385 0.813971 39.416 0.813971H38.1276C38.1057 0.813971 38.0879 0.79711 38.0879 0.776359V0.112319C38.0879 0.090919 38.1057 0.074707 38.1276 0.074707H41.7117C41.7336 0.074707 41.7513 0.0915674 41.7513 0.112319V0.776359C41.7513 0.797759 41.7336 0.813971 41.7117 0.813971H40.4267C40.4041 0.813971 40.3864 0.830831 40.3864 0.851582V4.40977C40.3864 4.43053 40.3686 4.44803 40.3467 4.44803H39.496H39.4966Z" fill="#DB162F"/>
<path d="M42.2553 3.06414C42.2539 3.05376 42.2566 3.04403 42.2635 3.0356C42.2703 3.02782 42.2806 3.02263 42.2908 3.02134L43.119 2.94482C43.1395 2.94287 43.158 2.95584 43.1621 2.97465C43.2182 3.24636 43.3269 3.44609 43.4869 3.57643C43.6538 3.71196 43.8788 3.77941 44.1619 3.77941C44.4614 3.77941 44.6878 3.7191 44.8396 3.59913C44.9921 3.47916 45.0673 3.33779 45.0673 3.17697C45.0673 3.07322 45.0352 2.98567 44.9716 2.91304C44.9073 2.84041 44.7958 2.77686 44.6365 2.72369C44.5277 2.68802 44.2788 2.62447 43.8911 2.53303C43.3919 2.41566 43.0417 2.2717 42.8407 2.1005C42.5575 1.85992 42.416 1.56616 42.416 1.22052C42.416 0.997441 42.4823 0.78928 42.6157 0.595386C42.749 0.401491 42.9412 0.253638 43.1915 0.152476C43.4425 0.0513136 43.7447 0.000732422 44.099 0.000732422C44.6775 0.000732422 45.1131 0.121349 45.4058 0.361934C45.6889 0.594737 45.8421 0.902764 45.8647 1.28731C45.8654 1.29704 45.8613 1.30741 45.8544 1.31519C45.8476 1.32298 45.8373 1.32752 45.8264 1.32752L44.9702 1.36318C44.9504 1.36448 44.9326 1.35086 44.9292 1.3327C44.8868 1.12519 44.8033 0.974096 44.6789 0.880067C44.5476 0.781498 44.3513 0.732214 44.0894 0.732214C43.8186 0.732214 43.6073 0.784741 43.4541 0.890442C43.3556 0.957884 43.3064 1.04867 43.3064 1.16215C43.3064 1.26591 43.3522 1.35345 43.4445 1.42738C43.5621 1.52076 43.8473 1.61868 44.3 1.71984C44.7527 1.82101 45.0878 1.92606 45.3046 2.03436C45.5214 2.1433 45.6917 2.29115 45.8141 2.47921C45.9372 2.66662 45.9981 2.89942 45.9981 3.17567C45.9981 3.42599 45.9249 3.66138 45.7778 3.87992C45.6308 4.09911 45.4236 4.26187 45.1548 4.36822C44.8861 4.47457 44.5524 4.52775 44.1516 4.52775C43.569 4.52775 43.121 4.4 42.8085 4.1445C42.5042 3.89548 42.3196 3.53623 42.2539 3.06608L42.2553 3.06414Z" fill="#DB162F"/>
<defs>
<linearGradient id="paint0_linear_410_5936" x1="54.2176" y1="719.498" x2="1627.81" y2="719.498" gradientUnits="userSpaceOnUse">
<stop stop-color="#040404"/>
<stop offset="0.14902" stop-color="#282829"/>
<stop offset="0.25098" stop-color="#4D4D4F"/>
<stop offset="0.333333" stop-color="#29292A"/>
<stop offset="0.4" stop-color="#040404"/>
<stop offset="0.478431" stop-color="#020202"/>
<stop offset="0.529412"/>
<stop offset="0.839216" stop-color="#5A5B5D"/>
<stop offset="1"/>
</linearGradient>
<linearGradient id="paint1_linear_410_5936" x1="0.00205159" y1="31.3162" x2="45.9993" y2="31.3162" gradientUnits="userSpaceOnUse">
<stop stop-color="#040404"/>
<stop offset="0.14902" stop-color="#222223"/>
<stop offset="0.25098" stop-color="#414042"/>
<stop offset="0.333333" stop-color="#232223"/>
<stop offset="0.4" stop-color="#040404"/>
<stop offset="0.478431" stop-color="#020202"/>
<stop offset="0.529412"/>
<stop offset="0.839216" stop-color="#414042"/>
<stop offset="1"/>
</linearGradient>
<linearGradient id="paint2_linear_410_5936" x1="54.2176" y1="719.498" x2="1627.81" y2="719.498" gradientUnits="userSpaceOnUse">
<stop stop-color="#040404"/>
<stop offset="0.14902" stop-color="#282829"/>
<stop offset="0.25098" stop-color="#4D4D4F"/>
<stop offset="0.333333" stop-color="#29292A"/>
<stop offset="0.4" stop-color="#040404"/>
<stop offset="0.478431" stop-color="#020202"/>
<stop offset="0.529412"/>
<stop offset="0.839216" stop-color="#5A5B5D"/>
<stop offset="1"/>
</linearGradient>
<linearGradient id="paint3_linear_410_5936" x1="15.0199" y1="18.0918" x2="30.7549" y2="18.0918" gradientUnits="userSpaceOnUse">
<stop stop-color="#040404"/>
<stop offset="0.160784" stop-color="#222223"/>
<stop offset="0.270588" stop-color="#414042"/>
<stop offset="0.4" stop-color="#232223"/>
<stop offset="0.501961" stop-color="#040404"/>
<stop offset="0.552941" stop-color="#020202"/>
<stop offset="0.588235"/>
<stop offset="0.788235" stop-color="#414042"/>
<stop offset="1"/>
</linearGradient>
</defs>
</svg>
