<svg width="99" height="127" viewBox="0 0 99 127" fill="none" xmlns="http://www.w3.org/2000/svg">
<g clip-path="url(#clip0_147_411)">
<path fill-rule="evenodd" clip-rule="evenodd" d="M49.501 57.0864H49.5069C49.5319 57.0481 55.0541 48.6183 55.9166 47.2977C55.9166 47.2918 55.9166 47.2918 55.9195 47.2889V47.283C55.9283 47.283 55.9563 47.2345 55.9592 47.2271C55.9592 47.2227 55.9651 47.2227 55.9651 47.2227V47.2183C55.9681 47.2153 55.9681 47.2095 55.9739 47.2095C55.9769 47.2065 55.9769 47.2006 55.9769 47.1977C55.9769 47.1977 55.9828 47.1977 55.9828 47.1918L55.9857 47.1889H55.9901V47.183C55.9901 47.1786 55.9931 47.1786 55.9931 47.1742C56.024 47.1447 55.9769 47.1521 59.0073 47.158C60.4953 47.1609 62.7251 47.1639 66.0675 47.1624C66.2382 47.1624 66.3412 46.9859 66.2588 46.8374C62.0834 39.4532 64.6708 44.0373 56.0107 28.6895C55.1012 26.8703 53.7 24.9761 51.6601 24.9761H49.5054C48.9771 24.9761 48.5046 24.9614 48.0675 24.9614C46.7149 24.9614 45.7244 25.1056 44.5808 26.2835C44.3409 26.5247 44.4322 26.9203 44.7295 27.0527H44.7383C44.7398 27.0542 44.7986 27.0748 44.8237 27.088C45.0901 27.2336 44.9841 27.6483 44.6721 27.6483C44.622 27.6512 35.6161 27.766 35.5705 27.766C31.2273 27.7792 31.0315 29.2851 31.8498 30.6499C32.0426 30.9602 33.2304 32.5912 33.4423 32.8824C33.5365 33.0132 33.7293 32.9971 33.8058 32.8559C34.1517 32.2147 35.3394 32.2367 36.9201 32.2603C37.4412 32.2676 38.0034 32.275 38.5936 32.2588C39.0807 32.2588 39.6562 32.6529 39.8784 33.0765C39.8784 33.0794 39.8784 33.0794 39.8843 33.0853C40.161 33.6412 39.9859 33.9383 39.8578 34.2559C39.8534 34.2559 39.8534 34.2618 39.849 34.2648C38.1358 37.3046 35.0392 42.7843 32.7447 46.8389C32.7108 46.908 32.7108 46.9903 32.7506 47.0565C32.7888 47.1256 32.858 47.1653 32.936 47.1653H42.8897C43.0546 47.1653 42.7823 46.8212 46.2513 52.1273C46.294 52.1273 46.4662 52.4494 49.4995 57.0878L49.501 57.0864Z" fill="url(#paint0_linear_147_411)"/>
<path fill-rule="evenodd" clip-rule="evenodd" d="M99.0005 77.5212V15.267C99.0005 15.1464 98.9048 15.0508 98.7827 15.0508H0.218306C0.102035 15.0508 0.00195312 15.1464 0.00195312 15.267V77.5212C0.00195312 90.7409 5.15469 103.162 14.502 112.509C23.845 121.853 36.2787 127 49.5012 127C76.7971 127 99.0005 104.805 99.0005 77.5212ZM5.02076 20.0539C5.01193 20.0481 5.0031 20.0451 4.99868 20.0348C4.99574 20.0348 4.98691 20.0319 4.98102 20.026C4.98102 20.0231 4.97808 20.0231 4.98102 20.0172C4.98102 20.0142 4.98102 20.0142 4.98691 20.0142C94.3688 20.0142 93.9876 19.9745 94.0303 20.0172C94.0303 20.026 94.02 20.0348 94.0096 20.0348C93.7359 20.5804 80.4235 31.5074 70.801 36.7782C70.801 36.7826 70.7951 36.7826 70.7921 36.787C68.8435 37.6724 67.7485 39.996 68.4785 42.1755C68.4814 42.1799 68.4814 42.1843 68.4873 42.1902C68.5168 42.2784 68.6183 42.549 68.633 42.5652C68.6536 42.6388 68.9612 43.2064 73.7725 51.8097C73.8123 51.8745 73.8123 51.9568 73.7725 52.0215C73.7357 52.0921 73.6636 52.1303 73.5871 52.1303C68.1017 52.1451 64.6386 52.1377 62.4486 52.1318C58.3746 52.1186 58.7087 52.1053 58.619 52.2304C53.9563 59.3557 52.7936 61.1249 52.5773 61.4587C52.5728 61.4616 52.5728 61.4661 52.5684 61.4705C52.5684 61.4763 52.5596 61.4808 52.5537 61.4852V61.4881C52.5537 61.494 52.5537 61.494 52.5508 61.4969C52.5464 61.5058 52.5419 61.5102 52.5361 61.5146V61.5205L52.5331 61.5234C49.7632 65.7236 49.6028 66.2663 49.3231 65.8736C48.3841 64.4397 40.7058 52.7083 40.3776 52.2186C40.3776 52.2156 40.3746 52.2098 40.3746 52.2098C40.3746 52.2068 40.3688 52.2068 40.3688 52.2068C40.3643 52.198 40.3599 52.1921 40.357 52.1906V52.1848V52.1818C40.3526 52.1759 40.3482 52.173 40.3482 52.1671L40.3423 52.1642C40.3393 52.1642 40.3393 52.1598 40.3393 52.1598C40.3393 52.1568 40.3393 52.1568 40.3334 52.1509L40.3305 52.148C40.3305 52.1436 40.3305 52.1436 40.3246 52.1392C40.3246 52.1039 37.9109 52.1171 35.0129 52.1289C30.6976 52.148 25.3109 52.1671 25.2314 52.0259C25.1181 51.8347 25.2594 51.8406 26.6208 49.3332C26.6443 49.2905 30.1854 42.9594 30.2149 42.9005C30.2576 42.8564 30.4283 42.4593 30.4607 42.3682C30.4607 42.3682 30.4607 42.3637 30.4666 42.3593C30.4975 42.2814 30.524 42.2049 30.549 42.1255V42.1167C30.5504 42.1093 30.6108 41.9064 30.6137 41.8961C30.6137 41.8873 30.6137 41.8828 30.6181 41.8755C30.6226 41.8534 30.6299 41.8314 30.6358 41.8108C30.6358 41.802 30.6358 41.7975 30.6388 41.7931C31.095 39.8166 30.1766 37.7341 28.2088 36.7856H28.2C23.9539 34.5208 13.6911 27.6778 5.01929 20.0613L5.02076 20.0539ZM19.9226 45.8404C15.784 43.6241 9.44938 39.6842 5.06639 36.8591C5.00604 36.8194 4.96778 36.7517 4.96778 36.6767C5.0134 30.2044 4.85445 30.3162 5.09288 30.1956C5.165 30.1617 5.25625 30.175 5.32248 30.2264C15.3851 38.4195 21.8845 41.3387 21.9979 41.6181C22.067 41.6446 22.1318 41.674 22.201 41.7064C22.2039 41.7093 22.2451 41.7358 22.2525 41.7358C22.2584 41.7417 22.2672 41.7446 22.2701 41.7446C23.4343 42.3873 23.8965 43.7947 23.3696 45.0006C23.3652 45.0036 23.3652 45.0124 23.3622 45.0183L23.2195 45.2845V45.2933C23.2092 45.3124 23.2018 45.3256 23.1944 45.3359V45.3374C23.1944 45.3403 23.193 45.3433 23.19 45.3477C23.087 45.5418 22.6572 46.358 21.1428 49.2376C21.7329 47.9758 21.2016 46.5786 20.167 45.9771V45.9713C20.0963 45.9345 20.033 45.8933 19.9624 45.8624C19.9594 45.8595 19.9536 45.8536 19.9447 45.8507H19.9418C19.9359 45.8462 19.9285 45.8418 19.9241 45.8374L19.9226 45.8404ZM77.8303 49.1743V49.1655C77.8082 49.1229 75.8168 45.308 75.7742 45.2653L75.6535 45.0286C75.6505 45.0227 75.6505 45.0227 75.6505 45.0197C75.1177 43.852 75.5475 42.3932 76.7529 41.7417C76.7971 41.6975 76.9884 41.6519 77.0164 41.5931C88.8731 34.9472 93.443 29.9838 93.9169 30.1956C93.9905 30.2353 94.0376 30.3088 94.0376 30.3897C93.9979 36.9076 94.1289 36.737 93.9375 36.8591C89.6973 39.6033 83.2141 43.6314 79.0872 45.8404C79.0842 45.8448 79.0783 45.8492 79.0695 45.8536H79.0666C79.0621 45.8565 79.0533 45.8624 79.0489 45.8654C78.9753 45.8962 78.915 45.9315 78.8502 45.9698C78.8502 45.9727 78.8458 45.9727 78.8458 45.9727H78.8414C78.8193 46.0168 77.6213 46.6242 77.6213 48.1478C77.6213 48.5155 77.7037 48.8714 77.8464 49.1846C77.8464 49.1935 77.8494 49.1979 77.8553 49.2067H77.8494L77.8288 49.1729L77.8303 49.1743ZM4.96925 51.9112C5.00899 44.7697 4.80441 44.0035 5.29304 44.2815C9.41553 46.5904 14.0311 49.0699 14.0826 49.0979C14.0885 49.0979 14.0914 49.1008 14.0973 49.1008C19.1367 51.7833 20.111 52.1274 19.7328 52.1274C14.4255 52.0936 11.0242 52.1098 8.84742 52.1259C7.62141 52.1348 6.78249 52.1436 6.20997 52.1436C4.93245 52.1436 4.97072 52.0995 4.97072 51.9112H4.96925ZM79.3197 51.998C92.0728 45.6095 94.0391 43.6064 94.0391 44.4653C93.9464 51.9127 94.2363 52.1259 93.8227 52.1259C89.9696 52.1201 87.1025 52.1245 84.9846 52.1274C83.6409 52.1303 82.5974 52.1318 81.7923 52.1318C79.3388 52.1318 79.0945 52.1098 79.3212 51.9965L79.3197 51.998ZM86.0267 57.0909C94.6087 57.0614 94.0391 57.0335 94.0391 57.3026C93.9522 61.6043 94.2348 62.0514 93.8227 62.0514C83.8719 62.0396 76.6823 62.0499 71.4957 62.0587C57.6446 62.0852 58.0773 62.1102 58.3393 61.7175C61.5508 56.8453 61.2917 57.0864 61.4875 57.0864C66.8875 57.1026 71.3926 57.1085 75.1516 57.1085C79.8437 57.1085 83.3715 57.0997 86.0267 57.0909ZM4.97072 57.3026C4.97072 57.1806 5.06933 57.0864 5.1856 57.0864H37.5253C37.5989 57.0864 37.668 57.1262 37.7048 57.1865C37.9962 57.6321 40.1848 60.9778 40.669 61.7175C40.9707 62.1705 40.3393 62.1043 32.2798 62.0367C27.0181 61.9925 18.5892 61.9499 5.18413 62.0499C4.76908 62.0499 5.05903 61.5675 4.96925 57.3012L4.97072 57.3026Z" fill="url(#paint1_linear_147_411)"/>
<path fill-rule="evenodd" clip-rule="evenodd" d="M49.501 57.0864H49.5069C49.5319 57.0481 55.0541 48.6183 55.9166 47.2977C55.9166 47.2918 55.9166 47.2918 55.9195 47.2889V47.283C55.9283 47.283 55.9563 47.2345 55.9592 47.2271C55.9592 47.2227 55.9651 47.2227 55.9651 47.2227V47.2183C55.9681 47.2153 55.9681 47.2095 55.9739 47.2095C55.9769 47.2065 55.9769 47.2006 55.9769 47.1977C55.9769 47.1977 55.9828 47.1977 55.9828 47.1918L55.9857 47.1889H55.9901V47.183C55.9901 47.1786 55.9931 47.1786 55.9931 47.1742C56.024 47.1447 55.9769 47.1521 59.0073 47.158C60.4953 47.1609 62.7251 47.1639 66.0675 47.1624C66.2382 47.1624 66.3412 46.9859 66.2588 46.8374C62.0834 39.4532 64.6708 44.0373 56.0107 28.6895C55.1012 26.8703 53.7 24.9761 51.6601 24.9761H49.5054C48.9771 24.9761 48.5046 24.9614 48.0675 24.9614C46.7149 24.9614 45.7244 25.1056 44.5808 26.2835C44.3409 26.5247 44.4322 26.9203 44.7295 27.0527H44.7383C44.7398 27.0542 44.7986 27.0748 44.8237 27.088C45.0901 27.2336 44.9841 27.6483 44.6721 27.6483C44.622 27.6512 35.6161 27.766 35.5705 27.766C31.2273 27.7792 31.0315 29.2851 31.8498 30.6499C32.0426 30.9602 33.2304 32.5912 33.4423 32.8824C33.5365 33.0132 33.7293 32.9971 33.8058 32.8559C34.1517 32.2147 35.3394 32.2367 36.9201 32.2603C37.4412 32.2676 38.0034 32.275 38.5936 32.2588C39.0807 32.2588 39.6562 32.6529 39.8784 33.0765C39.8784 33.0794 39.8784 33.0794 39.8843 33.0853C40.161 33.6412 39.9859 33.9383 39.8578 34.2559C39.8534 34.2559 39.8534 34.2618 39.849 34.2648C38.1358 37.3046 35.0392 42.7843 32.7447 46.8389C32.7108 46.908 32.7108 46.9903 32.7506 47.0565C32.7888 47.1256 32.858 47.1653 32.936 47.1653H42.8897C43.0546 47.1653 42.7823 46.8212 46.2513 52.1273C46.294 52.1273 46.4662 52.4494 49.4995 57.0878L49.501 57.0864Z" fill="url(#paint2_linear_147_411)"/>
<path fill-rule="evenodd" clip-rule="evenodd" d="M49.501 57.0864H49.5069C49.5319 57.0481 55.0541 48.6183 55.9166 47.2977C55.9166 47.2918 55.9166 47.2918 55.9195 47.2889V47.283C55.9283 47.283 55.9563 47.2345 55.9592 47.2271C55.9592 47.2227 55.9651 47.2227 55.9651 47.2227V47.2183C55.9681 47.2153 55.9681 47.2095 55.9739 47.2095C55.9769 47.2065 55.9769 47.2006 55.9769 47.1977C55.9769 47.1977 55.9828 47.1977 55.9828 47.1918L55.9857 47.1889H55.9901V47.183C55.9901 47.1786 55.9931 47.1786 55.9931 47.1742C56.024 47.1447 55.9769 47.1521 59.0073 47.158C60.4953 47.1609 62.7251 47.1639 66.0675 47.1624C66.2382 47.1624 66.3412 46.9859 66.2588 46.8374C62.0834 39.4532 64.6708 44.0373 56.0107 28.6895C55.1012 26.8703 53.7 24.9761 51.6601 24.9761H49.5054C48.9771 24.9761 48.5046 24.9614 48.0675 24.9614C46.7149 24.9614 45.7244 25.1056 44.5808 26.2835C44.3409 26.5247 44.4322 26.9203 44.7295 27.0527H44.7383C44.7398 27.0542 44.7986 27.0748 44.8237 27.088C45.0901 27.2336 44.9841 27.6483 44.6721 27.6483C44.622 27.6512 35.6161 27.766 35.5705 27.766C31.2273 27.7792 31.0315 29.2851 31.8498 30.6499C32.0426 30.9602 33.2304 32.5912 33.4423 32.8824C33.5365 33.0132 33.7293 32.9971 33.8058 32.8559C34.1517 32.2147 35.3394 32.2367 36.9201 32.2603C37.4412 32.2676 38.0034 32.275 38.5936 32.2588C39.0807 32.2588 39.6562 32.6529 39.8784 33.0765C39.8784 33.0794 39.8784 33.0794 39.8843 33.0853C40.161 33.6412 39.9859 33.9383 39.8578 34.2559C39.8534 34.2559 39.8534 34.2618 39.849 34.2648C38.1358 37.3046 35.0392 42.7843 32.7447 46.8389C32.7108 46.908 32.7108 46.9903 32.7506 47.0565C32.7888 47.1256 32.858 47.1653 32.936 47.1653H42.8897C43.0546 47.1653 42.7823 46.8212 46.2513 52.1273C46.294 52.1273 46.4662 52.4494 49.4995 57.0878L49.501 57.0864Z" fill="url(#paint3_linear_147_411)"/>
<path d="M94.0371 67.222V76.9092C94.0282 77.6093 94.0106 78.3005 93.9767 78.9887C93.8766 80.727 93.7044 82.3139 93.4454 83.8786C93.4277 83.9772 93.3365 84.0551 93.2335 84.0551H79.6032C79.5723 84.0551 79.5385 84.0463 79.5134 84.0345C79.4914 84.0257 79.4693 84.0125 79.4531 83.9963C79.431 83.9787 79.4134 83.9536 79.406 83.9272C79.3927 83.9007 79.3883 83.8742 79.3883 83.8448V79.3123C79.3883 79.3079 79.3839 79.3034 79.3839 79.299V79.2873C79.3839 79.2829 79.3795 79.277 79.3795 79.274V79.2652C79.3751 79.2608 79.3751 79.2549 79.3751 79.2549C79.3751 79.252 79.3707 79.2476 79.3707 79.2476V79.2431L79.3663 79.2402C79.3663 79.2358 79.3662 79.2314 79.3618 79.2314C79.3618 79.227 79.3618 79.2226 79.3574 79.2226C79.3574 79.2196 79.3574 79.2196 79.353 79.2137C79.353 79.2093 79.353 79.2093 79.3486 79.2049L79.3442 79.2005C79.3442 79.1961 79.3398 79.1917 79.3398 79.1917C79.3353 79.1873 79.3353 79.1873 79.3309 79.1828L79.3265 79.1784L79.3177 79.1696C79.3133 79.1652 79.3133 79.1652 79.3089 79.1593C79.3044 79.1593 79.3 79.1549 79.3 79.1505C79.2956 79.1505 79.2912 79.1461 79.2868 79.1461C79.2824 79.1417 79.2735 79.1373 79.2691 79.1328H79.2603C79.2338 79.1196 79.2044 79.1108 79.169 79.1108H66.3041C66.2084 79.1108 66.1231 79.1711 66.0966 79.2711C66.0922 79.2887 66.0878 79.3093 66.0878 79.327V80.1667C66.0878 80.2402 66.1275 80.3094 66.1908 80.3476L67.3196 80.9962L69.0152 81.9742L79.2721 87.867L81.0412 88.8833L90.3664 94.2497C88.5149 98.5308 86.0158 102.44 82.9869 105.872C82.3628 106.586 81.7108 107.281 81.0397 107.952C73.6086 115.324 63.7579 120.067 52.7975 120.867C52.7592 120.867 52.7239 120.858 52.6945 120.846C52.6724 120.833 52.6518 120.824 52.6385 120.813C52.6165 120.791 52.5988 120.77 52.587 120.739C52.5738 120.713 52.5649 120.683 52.5649 120.652V101.1C52.5649 100.982 52.6636 100.888 52.7857 100.888H65.3474C65.4696 100.888 65.5638 100.984 65.5638 101.1V104.178C65.5638 104.243 65.6021 104.307 65.6595 104.343C65.97 104.265 66.0922 104.191 66.2084 104.118C66.3645 104.027 66.5205 103.924 66.6706 103.828C66.7133 103.799 66.7618 103.763 66.8045 103.737C66.9694 103.638 67.1254 103.53 67.2814 103.421C67.4933 103.284 67.6876 103.144 67.8863 103.002C68.1203 102.829 68.3499 102.665 68.578 102.488C68.6295 102.449 68.6737 102.415 68.7164 102.379C68.9062 102.241 69.0932 102.09 69.2742 101.947C69.6068 101.675 69.832 101.484 70.0572 101.294C70.2824 101.104 70.5031 100.909 70.7239 100.706C70.8887 100.559 71.0521 100.407 71.2125 100.251C71.2508 100.209 71.2773 100.157 71.2773 100.097V99.2367V99.2323C71.2773 99.2278 71.2773 99.2278 71.2729 99.2234V99.2102C71.2729 99.2073 71.2685 99.2073 71.2685 99.2014V99.194C71.264 99.1881 71.264 99.1852 71.264 99.1852C71.264 99.1808 71.2596 99.1764 71.2596 99.1764C71.2596 99.172 71.2552 99.172 71.2552 99.1675C71.2552 99.1675 71.2552 99.1631 71.2508 99.1587C71.2508 99.1587 71.2508 99.1543 71.2464 99.1543C71.2464 99.1499 71.2464 99.1499 71.242 99.1455C71.242 99.1411 71.2376 99.1411 71.2376 99.1411C71.2376 99.1367 71.2331 99.1323 71.2331 99.1323L71.2243 99.1234L71.2199 99.119C71.2155 99.1146 71.2155 99.1102 71.2111 99.1102C71.2066 99.1058 71.2066 99.1058 71.2022 99.1014C71.1978 99.097 71.1934 99.097 71.189 99.0925C71.1846 99.0881 71.1802 99.0881 71.1757 99.0837C71.1713 99.0793 71.1669 99.0793 71.1669 99.0764L52.6753 88.4391C52.64 88.4215 52.615 88.395 52.5973 88.3656C52.5767 88.3318 52.5635 88.2965 52.5635 88.2582V70.5736L54.805 67.1058C54.8477 67.0455 54.9125 67.0103 54.986 67.0103H93.8178C93.9385 67.0103 94.0341 67.1058 94.0341 67.2206L94.0371 67.222Z" fill="#DB162F"/>
<path d="M82.9903 105.873C82.3677 106.586 81.7142 107.281 81.0431 107.952C73.612 115.323 63.7628 120.066 52.8009 120.867C52.7626 120.867 52.7273 120.859 52.6979 120.845C52.6758 120.832 52.6552 120.823 52.6419 120.811C52.6213 120.789 52.6037 120.769 52.5904 120.738C52.5772 120.711 52.5684 120.681 52.5684 120.651V122.537C52.5684 122.541 52.5728 122.545 52.5728 122.55V122.575C52.5772 122.579 52.5772 122.584 52.5772 122.584C52.5772 122.588 52.5772 122.592 52.5816 122.597V122.606C52.586 122.61 52.586 122.614 52.586 122.614C52.586 122.617 52.5904 122.617 52.5904 122.622C52.5904 122.626 52.5949 122.631 52.5949 122.631C52.5949 122.635 52.5993 122.639 52.5993 122.639C52.5993 122.644 52.6037 122.644 52.6037 122.65C52.6037 122.653 52.6081 122.653 52.6081 122.657C52.6125 122.657 52.6125 122.662 52.6125 122.666C52.6169 122.666 52.6169 122.67 52.6213 122.67C52.6213 122.673 52.6258 122.673 52.6258 122.679C52.6302 122.684 52.6302 122.684 52.6346 122.688C52.6346 122.688 52.639 122.692 52.6434 122.692C52.6434 122.697 52.6478 122.701 52.6522 122.701C52.6522 122.706 52.6567 122.706 52.6611 122.71C52.6655 122.71 52.6699 122.714 52.6743 122.719C52.6787 122.723 52.6817 122.723 52.6905 122.728H52.6993C52.7303 122.745 52.7641 122.754 52.8024 122.754C63.7643 121.948 73.6135 117.211 81.0446 109.839C81.7157 109.164 82.3677 108.473 82.9917 107.759C86.1796 104.14 88.7803 100.008 90.6568 95.4618V94.4162L90.3713 94.2515C88.5198 98.5325 86.0192 102.442 82.9917 105.874L82.9903 105.873Z" fill="#50000B"/>
<path d="M67.3227 80.9977H79.1706C79.206 80.9977 79.2354 81.0065 79.2619 81.0197C79.2884 81.0286 79.3046 81.0418 79.3222 81.0595C79.3443 81.0815 79.3576 81.1021 79.3708 81.1286C79.3796 81.1551 79.3885 81.1801 79.3885 81.2109V79.3123C79.3885 79.3079 79.384 79.3035 79.384 79.2991V79.2873C79.384 79.2829 79.3796 79.277 79.3796 79.2741V79.2653C79.3752 79.2608 79.3752 79.2564 79.3752 79.2564C79.3752 79.252 79.3708 79.2476 79.3708 79.2476V79.2432L79.3664 79.2403C79.3664 79.2358 79.3664 79.2314 79.362 79.2314C79.362 79.227 79.362 79.2226 79.3576 79.2226C79.3576 79.2182 79.3576 79.2182 79.3531 79.2138C79.3531 79.2094 79.3531 79.2094 79.3487 79.205L79.3443 79.2005C79.3443 79.1961 79.3399 79.1917 79.3399 79.1917C79.3355 79.1873 79.3355 79.1873 79.3311 79.1829L79.3266 79.1785L79.3178 79.1697C79.3134 79.1653 79.3134 79.1653 79.309 79.1594C79.3046 79.1594 79.3002 79.1564 79.3002 79.1506C79.2957 79.1506 79.2913 79.1461 79.2869 79.1461C79.2825 79.1417 79.2737 79.1373 79.2693 79.1329H79.2604C79.2339 79.1197 79.2045 79.1108 79.1692 79.1108H66.3042C66.2086 79.1108 66.1232 79.1711 66.0967 79.2711C66.0923 79.2888 66.0879 79.3094 66.0879 79.327V80.1668C66.0879 80.2403 66.1276 80.3094 66.1909 80.3477L67.3198 80.9962L67.3227 80.9977Z" fill="#50000B"/>
<path d="M93.9771 78.9872C93.877 80.7255 93.7048 82.3124 93.4457 83.8771C93.4281 83.9757 93.3368 84.0551 93.2338 84.0551H79.6035C79.5726 84.0551 79.5388 84.0463 79.5138 84.033C79.4917 84.0242 79.4696 84.011 79.4534 83.9948C79.4314 83.9771 79.4137 83.9521 79.4063 83.9257C79.3931 83.8992 79.3887 83.8742 79.3887 83.8433V85.7537C79.3887 85.7581 79.3887 85.7625 79.3931 85.7669V85.7757C79.3931 85.7802 79.3931 85.7846 79.3975 85.7846V85.7963C79.4019 85.7963 79.4019 85.8008 79.4019 85.8052L79.4063 85.8081V85.8125C79.4063 85.8125 79.4107 85.8169 79.4107 85.8213L79.4152 85.8258C79.4152 85.8302 79.4196 85.8346 79.4196 85.8346C79.4196 85.839 79.424 85.839 79.424 85.8434C79.4284 85.8478 79.4284 85.8478 79.4284 85.8522C79.4328 85.8522 79.4328 85.8552 79.4372 85.8552C79.4372 85.8596 79.4417 85.864 79.4417 85.864C79.4461 85.8684 79.4461 85.8684 79.4505 85.8728L79.4549 85.8772L79.4593 85.8816C79.4593 85.8816 79.4637 85.886 79.4681 85.886C79.4726 85.889 79.4726 85.8949 79.477 85.8949C79.4814 85.8993 79.4858 85.9037 79.4902 85.9037C79.4991 85.9081 79.5035 85.9125 79.5079 85.9169H79.5167C79.5417 85.9302 79.5771 85.939 79.6065 85.939H93.2367C93.3412 85.939 93.431 85.8611 93.4487 85.761C93.7077 84.1963 93.8814 82.6094 93.98 80.8667C94.0153 80.1829 94.0315 79.4917 94.0403 78.7916V76.9077C94.0315 77.6077 94.0139 78.299 93.98 78.9872H93.9771Z" fill="#50000B"/>
<path d="M52.5723 90.1687V90.1775C52.5723 90.1819 52.5767 90.1863 52.5767 90.1863V90.1996C52.5811 90.1996 52.5811 90.204 52.5811 90.2084C52.5811 90.2084 52.5811 90.2128 52.5855 90.2172C52.5855 90.2172 52.5855 90.2216 52.5899 90.226V90.2304C52.5944 90.2348 52.5944 90.2393 52.5944 90.2393C52.5988 90.2437 52.5988 90.2481 52.6032 90.2481C52.6032 90.2525 52.6032 90.2525 52.6076 90.2569C52.6076 90.2613 52.612 90.2613 52.612 90.2657C52.6164 90.2701 52.6164 90.2701 52.6208 90.2746C52.6208 90.2746 52.6253 90.2775 52.6253 90.2834C52.6297 90.2834 52.6297 90.2878 52.6341 90.2922C52.6385 90.2922 52.6385 90.2966 52.6429 90.301C52.6473 90.301 52.6518 90.3054 52.6562 90.3099C52.6562 90.3099 52.6606 90.3128 52.665 90.3187C52.6694 90.3231 52.6783 90.3231 52.6827 90.3275L70.7298 100.709C70.8946 100.562 71.058 100.41 71.2184 100.254C71.2567 100.21 71.2832 100.159 71.2832 100.1V99.2397V99.2352C71.2832 99.2308 71.2832 99.2308 71.2787 99.2264V99.2132C71.2787 99.2088 71.2743 99.2088 71.2743 99.2044V99.1955C71.2699 99.1911 71.2699 99.1867 71.2699 99.1867C71.2699 99.1823 71.2655 99.1779 71.2655 99.1779C71.2655 99.1735 71.2611 99.1735 71.2611 99.1691C71.2611 99.1691 71.2611 99.1647 71.2567 99.1602C71.2567 99.1602 71.2567 99.1558 71.2522 99.1558C71.2522 99.1514 71.2522 99.1514 71.2478 99.147C71.2478 99.1426 71.2434 99.1426 71.2434 99.1426C71.2434 99.1382 71.239 99.1338 71.239 99.1338L71.2302 99.1249L71.2258 99.1205C71.2213 99.1161 71.2213 99.1117 71.2169 99.1117C71.2125 99.1073 71.2125 99.1073 71.2081 99.1029C71.2037 99.0999 71.1993 99.0999 71.1948 99.0941C71.1904 99.0896 71.186 99.0897 71.1816 99.0852C71.1772 99.0823 71.1728 99.0823 71.1728 99.0779L52.6812 88.4407C52.6473 88.423 52.6209 88.3965 52.6032 88.3671C52.5811 88.3333 52.5693 88.298 52.5693 88.2598V90.1451C52.5693 90.1481 52.5738 90.1525 52.5738 90.1584V90.1701L52.5723 90.1687Z" fill="#50000B"/>
<path d="M31.7833 81.0184C31.8098 81.0273 31.826 81.0405 31.8437 81.0581H31.8481C31.8657 81.0802 31.8819 81.1008 31.8908 81.1273C31.904 81.1537 31.9084 81.1787 31.9084 81.2096V79.2978C31.9084 79.2948 31.9084 79.2889 31.904 79.286V79.2772C31.904 79.2728 31.8996 79.2684 31.8996 79.2654C31.8996 79.2654 31.8996 79.261 31.8952 79.2566V79.2478L31.8908 79.2434V79.2389C31.8908 79.2345 31.8863 79.2345 31.8863 79.2301C31.8863 79.2301 31.8819 79.2257 31.8819 79.2213L31.8775 79.2169C31.8775 79.2125 31.8731 79.2081 31.8731 79.2081C31.8687 79.2036 31.8687 79.2036 31.8687 79.1992C31.8643 79.1992 31.8643 79.1963 31.8598 79.1904L31.8554 79.186C31.851 79.1816 31.851 79.1816 31.8466 79.1772V79.1728H31.8422L31.8378 79.1684C31.8378 79.1684 31.8334 79.1639 31.8289 79.1639C31.8289 79.161 31.8245 79.1566 31.8201 79.1566C31.8157 79.1522 31.8113 79.1478 31.8069 79.1478C31.8025 79.1433 31.7936 79.1389 31.7892 79.1389C31.7892 79.1345 31.7848 79.1345 31.7804 79.1345C31.7539 79.1213 31.7244 79.1139 31.6891 79.1139H5.15568C5.12477 79.1139 5.09092 79.1007 5.06885 79.0786C5.04235 79.0566 5.03058 79.0257 5.02616 78.9963C4.99231 78.3036 4.97024 77.608 4.96582 76.908V78.7919C4.97024 79.4934 4.99231 80.189 5.02616 80.8802V80.8905V80.8949C5.02616 80.8949 5.02616 80.8993 5.03058 80.8993V80.9081V80.9125C5.03499 80.9125 5.03499 80.9155 5.03499 80.9155C5.03499 80.9199 5.03499 80.9199 5.03941 80.9199V80.9287C5.03941 80.9287 5.04383 80.9287 5.04383 80.9331L5.04824 80.9375V80.942C5.05266 80.942 5.05266 80.9464 5.05266 80.9464L5.05707 80.9508L5.06149 80.9552C5.0659 80.9596 5.0659 80.9596 5.07032 80.964L5.07473 80.9684C5.07915 80.9684 5.07915 80.9728 5.08356 80.9728C5.08356 80.9728 5.08798 80.9773 5.09239 80.9773C5.09239 80.9802 5.09681 80.9802 5.10122 80.9861C5.11889 80.9949 5.13949 80.9993 5.15715 80.9993H31.6906C31.7259 80.9993 31.7554 81.0081 31.7818 81.0214L31.7833 81.0184Z" fill="#50000B"/>
<path d="M46.2168 120.867C27.946 119.524 11.5546 106.914 6.44165 87.998H6.22529C6.3504 88.9069 5.89561 88.0348 6.70951 90.8393C6.73306 90.9114 7.1952 92.6409 8.11949 94.9513C8.1239 94.9557 8.1239 94.9601 8.1239 94.9645C8.31229 95.2484 12.6482 108 25.9708 116.186C30.423 119.155 38.0881 122.157 46.2153 122.754C46.6466 122.754 46.336 121.935 46.4361 120.657C46.4361 120.777 46.3375 120.869 46.2153 120.869L46.2168 120.867Z" fill="#50000B"/>
<path d="M46.4384 120.655C46.4384 120.716 46.4119 120.773 46.3693 120.811C46.331 120.845 46.2736 120.867 46.2177 120.867C41.1606 120.495 36.3419 119.293 31.9089 117.39C31.329 117.143 30.7624 116.876 30.1958 116.608C30.0618 116.543 29.9279 116.479 29.794 116.412C29.4186 116.227 29.0507 116.032 28.6828 115.837C28.4193 115.699 28.1558 115.564 27.8998 115.423C27.5495 115.229 27.2065 115.026 26.8651 114.826C26.6222 114.683 26.3765 114.54 26.1395 114.393C25.6111 114.074 25.0916 113.74 24.5809 113.395C24.4823 113.33 24.3866 113.261 24.2865 113.192C23.8494 112.893 23.4167 112.586 22.9884 112.271C22.8765 112.189 22.7632 112.103 22.6469 112.017C22.1583 111.649 21.6741 111.272 21.2016 110.884C21.1501 110.842 21.1016 110.802 21.0545 110.759C20.5923 110.378 20.1331 109.984 19.6872 109.583C19.6357 109.536 19.5841 109.487 19.5312 109.44C19.0293 108.99 18.5406 108.524 18.0608 108.047C17.6105 107.602 17.1822 107.153 16.7627 106.694C16.6935 106.621 16.6244 106.547 16.5552 106.474C16.3212 106.213 16.096 105.95 15.8679 105.691C15.6294 105.415 15.3881 105.143 15.154 104.862C14.9465 104.612 14.7434 104.357 14.5447 104.102C14.3372 103.841 14.1297 103.581 13.931 103.318C13.5895 102.863 13.2525 102.41 12.9272 101.947C12.6844 101.6 12.4563 101.247 12.2267 100.893C12.0574 100.638 11.8852 100.382 11.7248 100.123C11.5393 99.8293 11.3612 99.5308 11.1846 99.2322C11.033 98.9734 10.877 98.7175 10.7298 98.4587C10.5518 98.1557 10.3913 97.8454 10.2236 97.5336C10.0808 97.2733 9.93802 97.0101 9.80409 96.7468C9.52739 96.2056 9.25953 95.66 9.00344 95.1071C8.93426 94.9688 8.87392 94.8218 8.80916 94.6835C8.57956 94.1644 8.35438 93.6452 8.14244 93.1187C8.13802 93.1011 8.12919 93.0835 8.12036 93.0658C7.89518 92.5025 7.68324 91.9334 7.48013 91.3569C7.43304 91.2187 7.38005 91.076 7.32854 90.9378C7.12985 90.3377 6.93557 89.7274 6.75748 89.1171C6.73982 89.0612 6.72805 89.0083 6.71039 88.9524C6.61914 88.6362 6.52936 88.3171 6.44252 87.9979L19.615 87.945C19.7048 87.945 19.7872 88.0009 19.8182 88.0921C20.8307 90.9245 22.2407 93.557 23.9922 95.9453C26.0865 98.8028 28.643 101.299 31.5719 103.313C31.8618 103.291 31.9089 103.218 31.9089 103.135V79.299C31.9089 79.2946 31.9089 79.2902 31.9045 79.2858V79.277C31.9045 79.2725 31.9001 79.2681 31.9001 79.2652C31.9001 79.2652 31.9001 79.2608 31.8957 79.2564V79.2475L31.8913 79.2431V79.2387C31.8913 79.2343 31.8868 79.2343 31.8868 79.2299C31.8868 79.2299 31.8824 79.2255 31.8824 79.2211L31.878 79.2181C31.878 79.2137 31.8736 79.2093 31.8736 79.2093C31.8692 79.2049 31.8692 79.2049 31.8692 79.2005C31.8648 79.2005 31.8648 79.1961 31.8603 79.1917L31.8559 79.1873C31.8515 79.1828 31.8515 79.1828 31.8471 79.1784V79.174H31.8427L31.8383 79.1696C31.8383 79.1696 31.8339 79.1652 31.8294 79.1652C31.8294 79.1608 31.825 79.1564 31.8206 79.1564C31.8162 79.152 31.8118 79.1475 31.8074 79.1475C31.8029 79.1431 31.7941 79.1387 31.7897 79.1387C31.7897 79.1358 31.7853 79.1358 31.7809 79.1358C31.7544 79.1225 31.7249 79.1137 31.6896 79.1137H5.1547C5.1238 79.1137 5.08995 79.1005 5.06787 79.0799C5.04138 79.0578 5.02813 79.0269 5.02519 78.9975C4.98986 78.3049 4.96926 77.6092 4.96484 76.9092V67.2235C4.96484 67.1073 5.06345 67.0117 5.1812 67.0117H44.0173C44.0909 67.0117 44.1557 67.047 44.194 67.1073L46.4002 70.453L46.4355 120.657L46.4384 120.655Z" fill="#DB162F"/>
<path d="M4.35213 0.254487C4.35213 0.207426 4.3904 0.169189 4.4375 0.169189H6.26252C6.30961 0.169189 6.34788 0.207426 6.34788 0.254487V6.44741C6.34788 7.26803 6.27576 7.89894 6.13153 8.34161C5.93725 8.91957 5.58549 9.38283 5.07478 9.73137C4.56407 10.0814 3.89293 10.2564 3.05843 10.2564C2.07969 10.2564 1.32613 9.98285 0.797757 9.4343C0.28263 8.89898 0.0177077 8.12101 4.62223e-05 7.10038C-0.00142557 7.05626 0.0324256 7.01949 0.0765793 7.01361L1.7971 6.81654C1.82065 6.8136 1.84567 6.82095 1.86186 6.83713C1.881 6.85184 1.8913 6.87389 1.89277 6.8989C1.92073 7.41951 2.00168 7.79011 2.13856 8.01218C2.35491 8.36808 2.68459 8.54603 3.1276 8.54603C3.57355 8.54603 3.88999 8.41808 4.07544 8.16366C4.26088 7.90776 4.3536 7.3798 4.3536 6.57682V0.255958L4.35213 0.254487Z" fill="#DB162F"/>
<path d="M13.5553 6.16356C13.5833 6.16356 13.6098 6.15033 13.626 6.1268C13.6421 6.10327 13.6451 6.07385 13.6363 6.04738L12.3926 2.70165C12.3793 2.66782 12.3484 2.64576 12.3116 2.64576C12.2763 2.64576 12.2439 2.66929 12.2307 2.70165L11.0135 6.04738C11.0047 6.07385 11.0076 6.10327 11.0238 6.1268C11.04 6.15033 11.0665 6.16356 11.0945 6.16356H13.5553ZM17.3201 9.96961C17.3304 9.99608 17.3275 10.0255 17.3113 10.0505C17.2951 10.074 17.2686 10.0887 17.2407 10.0887H15.2479C15.2125 10.0887 15.1802 10.0667 15.1684 10.0329L14.3442 7.89011C14.3309 7.85776 14.3 7.8357 14.2632 7.8357H10.416C10.3792 7.8357 10.3483 7.85776 10.335 7.89158L9.55645 10.0314C9.54468 10.0652 9.5123 10.0887 9.4755 10.0887H7.53568C7.50772 10.0887 7.48123 10.074 7.46504 10.0505C7.44885 10.0284 7.4459 9.99756 7.45621 9.97108L11.2534 0.225068C11.2667 0.192714 11.2991 0.170654 11.3344 0.170654H13.336C13.3713 0.170654 13.4022 0.191243 13.4155 0.223598L17.3201 9.96961Z" fill="#DB162F"/>
<path d="M20.8139 10.0873C20.7771 10.0873 20.7447 10.0637 20.7329 10.0299L17.2477 0.2839C17.2374 0.257429 17.2418 0.228016 17.258 0.205956C17.2742 0.183896 17.3007 0.169189 17.3287 0.169189H19.3185C19.3553 0.169189 19.3877 0.19272 19.3995 0.226545L21.8073 7.26803C21.8191 7.30333 21.853 7.32686 21.8898 7.32686C21.9266 7.32686 21.9589 7.30333 21.9707 7.26803L24.3006 0.229486C24.3123 0.194191 24.3447 0.17066 24.383 0.17066H26.3243C26.3522 0.17066 26.3787 0.183896 26.3949 0.207426C26.4111 0.230957 26.4155 0.26037 26.4052 0.285371L22.9141 10.0314C22.9023 10.0652 22.87 10.0887 22.8332 10.0887H20.8153L20.8139 10.0873Z" fill="#DB162F"/>
<path d="M32.4122 6.16356C32.4402 6.16356 32.4667 6.15033 32.4829 6.1268C32.4991 6.10327 32.5035 6.07385 32.4932 6.04738L31.2495 2.70165C31.2363 2.66782 31.2054 2.64576 31.1686 2.64576C31.1333 2.64576 31.1009 2.66929 31.0876 2.70165L29.8705 6.04738C29.8602 6.07385 29.8646 6.10327 29.8808 6.1268C29.897 6.15033 29.9234 6.16356 29.9514 6.16356H32.4122ZM36.1771 9.96961C36.1874 9.99608 36.1844 10.0255 36.1683 10.0505C36.1521 10.074 36.1256 10.0887 36.0976 10.0887H34.1048C34.0695 10.0887 34.0371 10.0667 34.0239 10.0329L33.1997 7.89011C33.1864 7.85776 33.1555 7.8357 33.1187 7.8357H29.2714C29.2347 7.8357 29.2023 7.85776 29.1905 7.89158L28.4119 10.0314C28.4001 10.0652 28.3678 10.0887 28.331 10.0887H26.3911C26.3632 10.0887 26.3367 10.074 26.3205 10.0505C26.3043 10.0284 26.3014 9.99756 26.3117 9.97108L30.1089 0.225068C30.1221 0.192714 30.153 0.170654 30.1898 0.170654H32.1915C32.2268 0.170654 32.2577 0.191243 32.271 0.223598L36.1756 9.96961H36.1771Z" fill="#DB162F"/>
<path d="M41.1775 6.94883C41.1746 6.9253 41.1804 6.90324 41.1952 6.88412C41.2099 6.86647 41.2319 6.85471 41.254 6.85176L43.0378 6.67823C43.082 6.67382 43.1217 6.70323 43.1306 6.74588C43.2527 7.36208 43.4853 7.81504 43.8297 8.11064C44.1888 8.41801 44.6715 8.57096 45.2808 8.57096C45.9255 8.57096 46.4127 8.43419 46.7394 8.16212C47.0661 7.89005 47.2295 7.56944 47.2295 7.20472C47.2295 6.96942 47.1618 6.77088 47.0234 6.60617C46.8866 6.44145 46.6452 6.29733 46.3023 6.17673C46.0683 6.09585 45.5325 5.95173 44.698 5.74436C43.6236 5.47818 42.8701 5.15169 42.4373 4.76344C41.828 4.21783 41.5234 3.55162 41.5234 2.76776C41.5234 2.26186 41.6661 1.78978 41.9531 1.35005C42.2401 0.910328 42.6522 0.575019 43.1924 0.345598C43.7311 0.116176 44.3831 0.00146484 45.1454 0.00146484C46.3906 0.00146484 47.3281 0.275006 47.958 0.820618C48.5674 1.34858 48.8956 2.04714 48.9456 2.91924C48.9471 2.9413 48.9397 2.96483 48.9235 2.98248C48.9088 3.00013 48.8867 3.01042 48.8632 3.01042L47.0205 3.09131C46.9778 3.09425 46.9396 3.06336 46.9322 3.02219C46.8409 2.55158 46.6629 2.20891 46.3935 1.99567C46.1109 1.77213 45.6885 1.66036 45.1248 1.66036C44.542 1.66036 44.0872 1.77948 43.7575 2.0192C43.5456 2.17215 43.4396 2.37804 43.4396 2.6354C43.4396 2.87071 43.5382 3.06925 43.7369 3.2369C43.9901 3.44867 44.6038 3.67074 45.5781 3.90016C46.5525 4.12959 47.2737 4.36783 47.7417 4.61343C48.2082 4.8605 48.5747 5.19581 48.8382 5.6223C49.1031 6.04732 49.2341 6.57528 49.2341 7.20178C49.2341 7.76945 49.0766 8.3033 48.7602 8.79891C48.4452 9.29599 47.9978 9.66512 47.4208 9.90631C46.8424 10.1475 46.1227 10.2681 45.2617 10.2681C44.0077 10.2681 43.0437 9.97837 42.3711 9.39893C41.7162 8.8342 41.3188 8.01946 41.1775 6.95324V6.94883Z" fill="#DB162F"/>
<path d="M53.5821 1.8472C53.535 1.8472 53.4953 1.88691 53.4953 1.93397V4.57673C53.4953 4.62379 53.5336 4.66203 53.5821 4.66203H54.5933C55.3821 4.66203 55.9105 4.61055 56.1769 4.50761C56.4433 4.40466 56.6508 4.24142 56.8024 4.01935C56.954 3.79875 57.0291 3.54139 57.0291 3.24873C57.0291 2.88695 56.9231 2.58988 56.7112 2.35604C56.4992 2.12221 56.2299 1.97515 55.9061 1.91632C55.6677 1.8722 55.1864 1.84867 54.4637 1.84867H53.5821V1.8472ZM51.5776 10.0887C51.5305 10.0887 51.4922 10.0505 51.4922 10.002V0.255952C51.4922 0.207421 51.5305 0.170654 51.5776 0.170654H54.7066C55.9252 0.170654 56.7185 0.220657 57.0894 0.31919C57.6575 0.467726 58.1344 0.79127 58.5185 1.28982C58.9027 1.78837 59.094 2.43252 59.094 3.22226C59.094 3.83111 58.9836 4.3429 58.7628 4.75762C58.5421 5.17234 58.261 5.49883 57.9195 5.7356C57.5795 5.97238 57.2322 6.12827 56.8804 6.20621C56.4021 6.30033 55.7089 6.3474 54.8022 6.3474H53.5821C53.535 6.3474 53.4953 6.3871 53.4953 6.43416V10.0034C53.4953 10.0505 53.457 10.0902 53.4085 10.0902H51.5761L51.5776 10.0887Z" fill="#DB162F"/>
<path d="M62.6406 5.12228C62.6406 6.24439 62.8996 7.09737 63.4192 7.67681C63.9373 8.25624 64.5966 8.54596 65.3958 8.54596C66.195 8.54596 66.8499 8.25919 67.3621 7.68416C67.8743 7.10914 68.1304 6.24586 68.1304 5.09581C68.1304 3.96047 67.8817 3.1119 67.3827 2.55158C66.8838 1.99273 66.2215 1.71184 65.3958 1.71184C64.5701 1.71184 63.9034 1.99568 63.3986 2.56188C62.8923 3.12808 62.6406 3.98106 62.6406 5.12228ZM60.5757 5.18993C60.5757 4.17959 60.7258 3.33103 61.029 2.6457C61.2557 2.14127 61.5633 1.68684 61.9533 1.28535C62.3433 0.883862 62.7716 0.58532 63.2367 0.392664C63.8548 0.130888 64.5672 0 65.3752 0C66.8367 0 68.0068 0.452961 68.8839 1.36035C69.7611 2.26628 70.2012 3.52662 70.2012 5.1414C70.2012 6.74294 69.7656 7.99594 68.8943 8.90039C68.0244 9.80484 66.8588 10.2563 65.4017 10.2563C63.9255 10.2563 62.7525 9.80631 61.8812 8.90627C61.0099 8.00623 60.5742 6.76647 60.5742 5.18846L60.5757 5.18993Z" fill="#DB162F"/>
<path d="M74.4274 4.27819C74.4274 4.32672 74.4657 4.36496 74.5128 4.36496H75.9095C76.8706 4.36496 77.4711 4.32378 77.7095 4.24289C77.9494 4.16201 78.1363 4.02229 78.2717 3.82376C78.4072 3.62522 78.4749 3.37668 78.4749 3.07961C78.4749 2.74577 78.3851 2.47664 78.207 2.27075C78.0289 2.06633 77.7772 1.93544 77.452 1.88249C77.2886 1.86043 76.8029 1.84867 75.989 1.84867H74.5113C74.4642 1.84867 74.426 1.88691 74.426 1.93397V4.27966L74.4274 4.27819ZM72.5097 10.0887C72.4626 10.0887 72.4229 10.0505 72.4229 10.002V0.255952C72.4229 0.208891 72.4611 0.170654 72.5097 0.170654H76.6395C77.7007 0.170654 78.4704 0.258893 78.9517 0.436842C79.433 0.614791 79.8171 0.932452 80.1071 1.38688C80.3955 1.84279 80.5398 2.3634 80.5398 2.95019C80.5398 3.69434 80.3205 4.30907 79.8834 4.79439C79.4845 5.23558 78.9061 5.52971 78.1466 5.67237C78.1113 5.67972 78.0848 5.70619 78.0775 5.74149C78.0701 5.77531 78.0863 5.81061 78.1157 5.82973C78.4616 6.05032 78.7545 6.2871 78.9929 6.54299C79.274 6.84595 79.6552 7.38273 80.1336 8.15336L81.2624 9.95638C81.2786 9.98285 81.2801 10.0167 81.2654 10.0431C81.2507 10.0711 81.2212 10.0873 81.1903 10.0873H78.9959C78.9664 10.0873 78.9399 10.0726 78.9252 10.049L77.502 7.92835C76.9883 7.15773 76.6351 6.67094 76.4467 6.47093C76.2569 6.26945 76.0567 6.13121 75.8448 6.05768C75.6328 5.98267 75.2958 5.94591 74.8366 5.94591H74.5157C74.4686 5.94591 74.4304 5.98414 74.4304 6.03268V10.0005C74.4304 10.0476 74.3906 10.0873 74.3435 10.0873H72.5126L72.5097 10.0887Z" fill="#DB162F"/>
<path d="M85.0045 10.0873C84.956 10.0873 84.9177 10.049 84.9177 10.0005V1.93103C84.9177 1.88397 84.8794 1.84573 84.8309 1.84573H82.058C82.0109 1.84573 81.9727 1.8075 81.9727 1.76044V0.254487C81.9727 0.205956 82.0109 0.169189 82.058 0.169189H89.7717C89.8188 0.169189 89.857 0.207426 89.857 0.254487V1.76044C89.857 1.80897 89.8188 1.84573 89.7717 1.84573H87.0062C86.9576 1.84573 86.9193 1.88397 86.9193 1.93103V10.0005C86.9193 10.0476 86.8811 10.0873 86.834 10.0873H85.0031H85.0045Z" fill="#DB162F"/>
<path d="M90.9424 6.94883C90.9395 6.9253 90.9453 6.90324 90.9601 6.88412C90.9748 6.86647 90.9968 6.85471 91.0189 6.85176L92.8013 6.67823C92.8454 6.67382 92.8852 6.70323 92.894 6.74588C93.0147 7.36208 93.2487 7.81504 93.5931 8.11064C93.9522 8.41801 94.4364 8.57096 95.0458 8.57096C95.6904 8.57096 96.1776 8.43419 96.5043 8.16212C96.8325 7.89005 96.9944 7.56944 96.9944 7.20472C96.9944 6.96942 96.9252 6.77088 96.7883 6.60617C96.65 6.44145 96.4101 6.29733 96.0672 6.17673C95.8332 6.09585 95.2974 5.95173 94.4629 5.74436C93.3885 5.47818 92.635 5.15169 92.2023 4.76344C91.5929 4.21783 91.2883 3.55162 91.2883 2.76776C91.2883 2.26186 91.431 1.78978 91.718 1.35005C92.005 0.910328 92.4186 0.575019 92.9573 0.345598C93.4974 0.116176 94.148 0.00146484 94.9103 0.00146484C96.1555 0.00146484 97.093 0.275006 97.7229 0.820618C98.3323 1.34858 98.6619 2.04714 98.7105 2.91924C98.712 2.9413 98.7032 2.96483 98.6884 2.98248C98.6737 3.00013 98.6516 3.01042 98.6281 3.01042L96.7854 3.09131C96.7427 3.09425 96.7045 3.06336 96.6971 3.02219C96.6058 2.55158 96.4263 2.20891 96.1584 1.99567C95.8758 1.77213 95.4534 1.66036 94.8897 1.66036C94.3069 1.66036 93.8521 1.77948 93.5224 2.0192C93.3105 2.17215 93.2045 2.37804 93.2045 2.6354C93.2045 2.87071 93.3031 3.06925 93.5018 3.2369C93.755 3.44867 94.3687 3.67074 95.343 3.90016C96.3174 4.12959 97.0386 4.36783 97.5051 4.61343C97.9717 4.8605 98.3381 5.19581 98.6016 5.6223C98.8665 6.04732 98.9975 6.57528 98.9975 7.20178C98.9975 7.76945 98.84 8.3033 98.5236 8.79891C98.2072 9.29599 97.7612 9.66512 97.1828 9.90631C96.6044 10.1475 95.8861 10.2681 95.0237 10.2681C93.7697 10.2681 92.8057 9.97837 92.1331 9.39893C91.4781 8.8342 91.0807 8.01946 90.9395 6.95324L90.9424 6.94883Z" fill="#DB162F"/>
</g>
<defs>
<linearGradient id="paint0_linear_147_411" x1="116.684" y1="1631.72" x2="3503.32" y2="1631.72" gradientUnits="userSpaceOnUse">
<stop stop-color="#040404"/>
<stop offset="0.14902" stop-color="#282829"/>
<stop offset="0.25098" stop-color="#4D4D4F"/>
<stop offset="0.333333" stop-color="#29292A"/>
<stop offset="0.4" stop-color="#040404"/>
<stop offset="0.478431" stop-color="#020202"/>
<stop offset="0.529412"/>
<stop offset="0.839216" stop-color="#5A5B5D"/>
<stop offset="1"/>
</linearGradient>
<linearGradient id="paint1_linear_147_411" x1="0.0063685" y1="71.0209" x2="99.0005" y2="71.0209" gradientUnits="userSpaceOnUse">
<stop stop-color="#040404"/>
<stop offset="0.14902" stop-color="#222223"/>
<stop offset="0.25098" stop-color="#414042"/>
<stop offset="0.333333" stop-color="#232223"/>
<stop offset="0.4" stop-color="#040404"/>
<stop offset="0.478431" stop-color="#020202"/>
<stop offset="0.529412"/>
<stop offset="0.839216" stop-color="#414042"/>
<stop offset="1"/>
</linearGradient>
<linearGradient id="paint2_linear_147_411" x1="116.684" y1="1631.72" x2="3503.32" y2="1631.72" gradientUnits="userSpaceOnUse">
<stop stop-color="#040404"/>
<stop offset="0.14902" stop-color="#282829"/>
<stop offset="0.25098" stop-color="#4D4D4F"/>
<stop offset="0.333333" stop-color="#29292A"/>
<stop offset="0.4" stop-color="#040404"/>
<stop offset="0.478431" stop-color="#020202"/>
<stop offset="0.529412"/>
<stop offset="0.839216" stop-color="#5A5B5D"/>
<stop offset="1"/>
</linearGradient>
<linearGradient id="paint3_linear_147_411" x1="32.3237" y1="41.0298" x2="66.1882" y2="41.0298" gradientUnits="userSpaceOnUse">
<stop stop-color="#040404"/>
<stop offset="0.160784" stop-color="#222223"/>
<stop offset="0.270588" stop-color="#414042"/>
<stop offset="0.4" stop-color="#232223"/>
<stop offset="0.501961" stop-color="#040404"/>
<stop offset="0.552941" stop-color="#020202"/>
<stop offset="0.588235"/>
<stop offset="0.788235" stop-color="#414042"/>
<stop offset="1"/>
</linearGradient>
<clipPath id="clip0_147_411">
<rect width="99" height="127" fill="white"/>
</clipPath>
</defs>
</svg>
